<mxfile host="Electron" agent="Mozilla/5.0 (Windows NT 10.0; Win64; x64) AppleWebKit/537.36 (KHTML, like Gecko) draw.io/26.2.2 Chrome/134.0.6998.178 Electron/35.1.2 Safari/537.36" version="26.2.2" pages="2">
  <diagram name="App" id="6133507b-19e7-1e82-6fc7-422aa6c4b21f">
    <mxGraphModel dx="1904" dy="2290" grid="1" gridSize="10" guides="1" tooltips="1" connect="1" arrows="1" fold="1" page="1" pageScale="1" pageWidth="1654" pageHeight="1169" background="none" math="0" shadow="0" adaptiveColors="auto">
      <root>
        <mxCell id="0" />
        <mxCell id="1" parent="0" />
        <mxCell id="_mG5Y99NrrGWGi2W8GaV-199" style="edgeStyle=orthogonalEdgeStyle;rounded=0;orthogonalLoop=1;jettySize=auto;html=1;exitX=0.75;exitY=0;exitDx=0;exitDy=0;entryX=0.75;entryY=1;entryDx=0;entryDy=0;dashed=1;" edge="1" source="_mG5Y99NrrGWGi2W8GaV-200" parent="1">
          <mxGeometry relative="1" as="geometry">
            <mxPoint x="507.5" y="460" as="targetPoint" />
          </mxGeometry>
        </mxCell>
        <mxCell id="_mG5Y99NrrGWGi2W8GaV-201" style="edgeStyle=orthogonalEdgeStyle;rounded=0;orthogonalLoop=1;jettySize=auto;html=1;exitX=0.25;exitY=1;exitDx=0;exitDy=0;entryX=0.25;entryY=0;entryDx=0;entryDy=0;" edge="1" target="_mG5Y99NrrGWGi2W8GaV-200" parent="1">
          <mxGeometry relative="1" as="geometry">
            <mxPoint x="442.5" y="460" as="sourcePoint" />
          </mxGeometry>
        </mxCell>
        <mxCell id="KraZi5vWTmqZyXcboCno-10" value="Scripts" style="swimlane;fontStyle=0;childLayout=stackLayout;horizontal=1;startSize=40;fillColor=none;horizontalStack=0;resizeParent=1;resizeParentMax=0;resizeLast=0;collapsible=1;marginBottom=0;html=1;strokeColor=none;verticalAlign=top;align=left;swimlaneLine=1;rounded=0;shadow=0;noLabel=0;movable=1;resizable=1;rotatable=1;deletable=1;editable=1;locked=0;connectable=1;" vertex="1" parent="1">
          <mxGeometry x="40" width="1000" height="1241" as="geometry">
            <mxRectangle width="80" height="40" as="alternateBounds" />
          </mxGeometry>
        </mxCell>
        <mxCell id="nz1UPFNmMk5ghnaWC0-e-1" value="" style="group;noLabel=0;" vertex="1" connectable="0" parent="KraZi5vWTmqZyXcboCno-10">
          <mxGeometry y="40" width="1000" height="360" as="geometry" />
        </mxCell>
        <mxCell id="KraZi5vWTmqZyXcboCno-124" style="edgeStyle=orthogonalEdgeStyle;rounded=0;orthogonalLoop=1;jettySize=auto;html=1;" edge="1" parent="nz1UPFNmMk5ghnaWC0-e-1" source="nz1UPFNmMk5ghnaWC0-e-3" target="KraZi5vWTmqZyXcboCno-68">
          <mxGeometry relative="1" as="geometry" />
        </mxCell>
        <mxCell id="KraZi5vWTmqZyXcboCno-125" style="edgeStyle=orthogonalEdgeStyle;rounded=0;orthogonalLoop=1;jettySize=auto;html=1;exitX=1;exitY=0.5;exitDx=0;exitDy=0;" edge="1" parent="nz1UPFNmMk5ghnaWC0-e-1" source="nz1UPFNmMk5ghnaWC0-e-3" target="nz1UPFNmMk5ghnaWC0-e-9">
          <mxGeometry relative="1" as="geometry" />
        </mxCell>
        <mxCell id="KraZi5vWTmqZyXcboCno-126" style="edgeStyle=orthogonalEdgeStyle;rounded=0;orthogonalLoop=1;jettySize=auto;html=1;" edge="1" parent="nz1UPFNmMk5ghnaWC0-e-1" source="nz1UPFNmMk5ghnaWC0-e-3" target="nz1UPFNmMk5ghnaWC0-e-4">
          <mxGeometry relative="1" as="geometry" />
        </mxCell>
        <mxCell id="nz1UPFNmMk5ghnaWC0-e-3" value="&lt;p style=&quot;margin:0px;margin-top:4px;text-align:center;&quot;&gt;&lt;i&gt;&amp;lt;&amp;lt;App&amp;gt;&amp;gt;&lt;/i&gt;&lt;br&gt;&lt;b&gt;py21.py&lt;/b&gt;&lt;/p&gt;" style="verticalAlign=top;align=left;overflow=fill;fontSize=12;fontFamily=Helvetica;html=1;rounded=0;shadow=0;comic=0;labelBackgroundColor=none;strokeWidth=1;movable=1;resizable=1;rotatable=1;deletable=1;editable=1;locked=0;connectable=1;" vertex="1" parent="nz1UPFNmMk5ghnaWC0-e-1">
          <mxGeometry width="110" height="40" as="geometry" />
        </mxCell>
        <mxCell id="nz1UPFNmMk5ghnaWC0-e-4" value="&lt;span style=&quot;font-weight: normal;&quot;&gt;Variables&lt;/span&gt;" style="swimlane;html=1;fontStyle=1;align=center;verticalAlign=top;childLayout=stackLayout;horizontal=1;startSize=30;horizontalStack=0;resizeParent=1;resizeLast=0;collapsible=1;marginBottom=0;swimlaneFillColor=default;rounded=0;shadow=0;comic=0;labelBackgroundColor=none;strokeWidth=1;fillColor=none;fontFamily=Verdana;fontSize=12;movable=1;resizable=1;rotatable=1;deletable=1;editable=1;locked=0;connectable=1;" vertex="1" parent="nz1UPFNmMk5ghnaWC0-e-1">
          <mxGeometry x="120" y="80" width="160" height="280" as="geometry">
            <mxRectangle x="100" y="30" width="120" height="30" as="alternateBounds" />
          </mxGeometry>
        </mxCell>
        <mxCell id="nz1UPFNmMk5ghnaWC0-e-5" value="+ player1: Player" style="text;html=1;strokeColor=default;fillColor=none;align=left;verticalAlign=top;spacingLeft=4;spacingRight=4;whiteSpace=wrap;overflow=hidden;rotatable=0;points=[[0,0.5],[1,0.5]];portConstraint=eastwest;strokeWidth=1;dashed=1;dashPattern=1 2;" vertex="1" parent="nz1UPFNmMk5ghnaWC0-e-4">
          <mxGeometry y="30" width="160" height="30" as="geometry" />
        </mxCell>
        <mxCell id="nz1UPFNmMk5ghnaWC0-e-6" value="+ player2: Player" style="text;html=1;strokeColor=default;fillColor=none;align=left;verticalAlign=top;spacingLeft=4;spacingRight=4;whiteSpace=wrap;overflow=hidden;rotatable=0;points=[[0,0.5],[1,0.5]];portConstraint=eastwest;strokeWidth=1;dashed=1;dashPattern=1 2;" vertex="1" parent="nz1UPFNmMk5ghnaWC0-e-4">
          <mxGeometry y="60" width="160" height="30" as="geometry" />
        </mxCell>
        <mxCell id="nz1UPFNmMk5ghnaWC0-e-20" value="+ players: list[Player]" style="text;html=1;strokeColor=default;fillColor=none;align=left;verticalAlign=top;spacingLeft=4;spacingRight=4;whiteSpace=wrap;overflow=hidden;rotatable=0;points=[[0,0.5],[1,0.5]];portConstraint=eastwest;strokeWidth=1;dashed=1;dashPattern=1 2;" vertex="1" parent="nz1UPFNmMk5ghnaWC0-e-4">
          <mxGeometry y="90" width="160" height="30" as="geometry" />
        </mxCell>
        <mxCell id="nz1UPFNmMk5ghnaWC0-e-7" value="&lt;span style=&quot;color: rgba(0, 0, 0, 0); font-family: monospace; font-size: 0px; background-color: rgb(27, 29, 30);&quot;&gt;%3CmxGraphModel%3E%3Croot%3E%3CmxCell%20id%3D%220%22%2F%3E%3CmxCell%20id%3D%221%22%20parent%3D%220%22%2F%3E%3CmxCell%20id%3D%222%22%20value%3D%22%2B%20draw_card(self)%3A%20None%22%20style%3D%22text%3Bhtml%3D1%3BstrokeColor%3Dnone%3BfillColor%3Dnone%3Balign%3Dleft%3BverticalAlign%3Dtop%3BspacingLeft%3D4%3BspacingRight%3D4%3BwhiteSpace%3Dwrap%3Boverflow%3Dhidden%3Brotatable%3D0%3Bpoints%3D%5B%5B0%2C0.5%5D%2C%5B1%2C0.5%5D%5D%3BportConstraint%3Deastwest%3B%22%20vertex%3D%221%22%20parent%3D%221%22%3E%3CmxGeometry%20x%3D%22100%22%20y%3D%22170%22%20width%3D%22200%22%20height%3D%2230%22%20as%3D%22geometry%22%2F%3E%3C%2FmxCell%3E%3C%2Froot%3E%3C%2FmxGraphModel%3E&lt;/span&gt;&lt;span style=&quot;color: rgba(0, 0, 0, 0); font-family: monospace; font-size: 0px; background-color: rgb(27, 29, 30);&quot;&gt;%3CmxGraphModel%3E%3Croot%3E%3CmxCell%20id%3D%220%22%2F%3E%3CmxCell%20id%3D%221%22%20parent%3D%220%22%2F%3E%3CmxCell%20id%3D%222%22%20value%3D%22%2B%20draw_card(self)%3A%20None%22%20style%3D%22text%3Bhtml%3D1%3BstrokeColor%3Dnone%3BfillColor%3Dnone%3Balign%3Dleft%3BverticalAlign%3Dtop%3BspacingLeft%3D4%3BspacingRight%3D4%3BwhiteSpace%3Dwrap%3Boverflow%3Dhidden%3Brotatable%3D0%3Bpoints%3D%5B%5B0%2C0.5%5D%2C%5B1%2C0.5%5D%5D%3BportConstraint%3Deastwest%3B%22%20vertex%3D%221%22%20parent%3D%221%22%3E%3CmxGeometry%20x%3D%22100%22%20y%3D%22170%22%20width%3D%22200%22%20height%3D%2230%22%20as%3D%22geometry%22%2F%3E%3C%2FmxCell%3E%3C%2Froot%3E%3C%2FmxGraphModel%3E&lt;/span&gt;" style="line;html=1;strokeWidth=1;fillColor=none;align=left;verticalAlign=middle;spacingTop=-1;spacingLeft=3;spacingRight=3;rotatable=0;labelPosition=right;points=[];portConstraint=eastwest;" vertex="1" parent="nz1UPFNmMk5ghnaWC0-e-4">
          <mxGeometry y="120" width="160" height="20" as="geometry" />
        </mxCell>
        <mxCell id="nz1UPFNmMk5ghnaWC0-e-8" value="+ death_distance: int" style="text;html=1;strokeColor=default;fillColor=none;align=left;verticalAlign=top;spacingLeft=4;spacingRight=4;whiteSpace=wrap;overflow=hidden;rotatable=0;points=[[0,0.5],[1,0.5]];portConstraint=eastwest;strokeWidth=1;dashed=1;dashPattern=1 2;" vertex="1" parent="nz1UPFNmMk5ghnaWC0-e-4">
          <mxGeometry y="140" width="160" height="30" as="geometry" />
        </mxCell>
        <mxCell id="nz1UPFNmMk5ghnaWC0-e-18" value="+ current_position: int" style="text;html=1;strokeColor=default;fillColor=none;align=left;verticalAlign=top;spacingLeft=4;spacingRight=4;whiteSpace=wrap;overflow=hidden;rotatable=0;points=[[0,0.5],[1,0.5]];portConstraint=eastwest;strokeWidth=1;dashed=1;dashPattern=1 2;" vertex="1" parent="nz1UPFNmMk5ghnaWC0-e-4">
          <mxGeometry y="170" width="160" height="30" as="geometry" />
        </mxCell>
        <mxCell id="KraZi5vWTmqZyXcboCno-77" value="+ starting_cards: int" style="text;html=1;strokeColor=default;fillColor=none;align=left;verticalAlign=top;spacingLeft=4;spacingRight=4;whiteSpace=wrap;overflow=hidden;rotatable=0;points=[[0,0.5],[1,0.5]];portConstraint=eastwest;strokeWidth=1;dashed=1;dashPattern=1 2;" vertex="1" parent="nz1UPFNmMk5ghnaWC0-e-4">
          <mxGeometry y="200" width="160" height="30" as="geometry" />
        </mxCell>
        <mxCell id="KraZi5vWTmqZyXcboCno-79" value="&lt;span style=&quot;color: rgba(0, 0, 0, 0); font-family: monospace; font-size: 0px; background-color: rgb(27, 29, 30);&quot;&gt;%3CmxGraphModel%3E%3Croot%3E%3CmxCell%20id%3D%220%22%2F%3E%3CmxCell%20id%3D%221%22%20parent%3D%220%22%2F%3E%3CmxCell%20id%3D%222%22%20value%3D%22%2B%20draw_card(self)%3A%20None%22%20style%3D%22text%3Bhtml%3D1%3BstrokeColor%3Dnone%3BfillColor%3Dnone%3Balign%3Dleft%3BverticalAlign%3Dtop%3BspacingLeft%3D4%3BspacingRight%3D4%3BwhiteSpace%3Dwrap%3Boverflow%3Dhidden%3Brotatable%3D0%3Bpoints%3D%5B%5B0%2C0.5%5D%2C%5B1%2C0.5%5D%5D%3BportConstraint%3Deastwest%3B%22%20vertex%3D%221%22%20parent%3D%221%22%3E%3CmxGeometry%20x%3D%22100%22%20y%3D%22170%22%20width%3D%22200%22%20height%3D%2230%22%20as%3D%22geometry%22%2F%3E%3C%2FmxCell%3E%3C%2Froot%3E%3C%2FmxGraphModel%3E&lt;/span&gt;&lt;span style=&quot;color: rgba(0, 0, 0, 0); font-family: monospace; font-size: 0px; background-color: rgb(27, 29, 30);&quot;&gt;%3CmxGraphModel%3E%3Croot%3E%3CmxCell%20id%3D%220%22%2F%3E%3CmxCell%20id%3D%221%22%20parent%3D%220%22%2F%3E%3CmxCell%20id%3D%222%22%20value%3D%22%2B%20draw_card(self)%3A%20None%22%20style%3D%22text%3Bhtml%3D1%3BstrokeColor%3Dnone%3BfillColor%3Dnone%3Balign%3Dleft%3BverticalAlign%3Dtop%3BspacingLeft%3D4%3BspacingRight%3D4%3BwhiteSpace%3Dwrap%3Boverflow%3Dhidden%3Brotatable%3D0%3Bpoints%3D%5B%5B0%2C0.5%5D%2C%5B1%2C0.5%5D%5D%3BportConstraint%3Deastwest%3B%22%20vertex%3D%221%22%20parent%3D%221%22%3E%3CmxGeometry%20x%3D%22100%22%20y%3D%22170%22%20width%3D%22200%22%20height%3D%2230%22%20as%3D%22geometry%22%2F%3E%3C%2FmxCell%3E%3C%2Froot%3E%3C%2FmxGraphModel%3E&lt;/span&gt;" style="line;html=1;strokeWidth=1;fillColor=none;align=left;verticalAlign=middle;spacingTop=-1;spacingLeft=3;spacingRight=3;rotatable=0;labelPosition=right;points=[];portConstraint=eastwest;" vertex="1" parent="nz1UPFNmMk5ghnaWC0-e-4">
          <mxGeometry y="230" width="160" height="20" as="geometry" />
        </mxCell>
        <mxCell id="KraZi5vWTmqZyXcboCno-81" value="+ Game: __game__" style="text;html=1;strokeColor=default;fillColor=none;align=left;verticalAlign=top;spacingLeft=4;spacingRight=4;whiteSpace=wrap;overflow=hidden;rotatable=0;points=[[0,0.5],[1,0.5]];portConstraint=eastwest;strokeWidth=1;dashed=1;dashPattern=1 2;" vertex="1" parent="nz1UPFNmMk5ghnaWC0-e-4">
          <mxGeometry y="250" width="160" height="30" as="geometry" />
        </mxCell>
        <mxCell id="KraZi5vWTmqZyXcboCno-82" style="edgeStyle=orthogonalEdgeStyle;rounded=0;orthogonalLoop=1;jettySize=auto;html=1;dashed=1;dashPattern=8 8;" edge="1" parent="nz1UPFNmMk5ghnaWC0-e-1" source="nz1UPFNmMk5ghnaWC0-e-9" target="KraZi5vWTmqZyXcboCno-81">
          <mxGeometry relative="1" as="geometry">
            <mxPoint x="290" y="310" as="targetPoint" />
            <Array as="points">
              <mxPoint x="300" y="100" />
              <mxPoint x="300" y="345" />
            </Array>
          </mxGeometry>
        </mxCell>
        <mxCell id="nz1UPFNmMk5ghnaWC0-e-9" value="__game__" style="swimlane;html=1;fontStyle=1;align=center;verticalAlign=top;childLayout=stackLayout;horizontal=1;startSize=30;horizontalStack=0;resizeParent=1;resizeLast=0;collapsible=1;marginBottom=0;swimlaneFillColor=#ffffff;rounded=0;shadow=0;comic=0;labelBackgroundColor=none;strokeWidth=1;fillColor=none;fontFamily=Verdana;fontSize=12" vertex="1" parent="nz1UPFNmMk5ghnaWC0-e-1">
          <mxGeometry x="320" y="80" width="200" height="168" as="geometry" />
        </mxCell>
        <mxCell id="KraZi5vWTmqZyXcboCno-6" value="Variables" style="swimlane;fontStyle=0;childLayout=stackLayout;horizontal=1;startSize=38;fillColor=none;horizontalStack=0;resizeParent=1;resizeParentMax=0;resizeLast=0;collapsible=1;marginBottom=0;html=1;" vertex="1" parent="nz1UPFNmMk5ghnaWC0-e-9">
          <mxGeometry y="30" width="200" height="52" as="geometry">
            <mxRectangle y="30" width="200" height="30" as="alternateBounds" />
          </mxGeometry>
        </mxCell>
        <mxCell id="KraZi5vWTmqZyXcboCno-1" value="Methods" style="swimlane;fontStyle=0;childLayout=stackLayout;horizontal=1;startSize=26;fillColor=none;horizontalStack=0;resizeParent=1;resizeParentMax=0;resizeLast=0;collapsible=1;marginBottom=0;html=1;" vertex="1" parent="nz1UPFNmMk5ghnaWC0-e-9">
          <mxGeometry y="82" width="200" height="86" as="geometry">
            <mxRectangle y="108" width="200" height="30" as="alternateBounds" />
          </mxGeometry>
        </mxCell>
        <mxCell id="KraZi5vWTmqZyXcboCno-2" value="+ setup() -&amp;gt; None" style="text;strokeColor=default;fillColor=none;align=left;verticalAlign=top;spacingLeft=4;spacingRight=4;overflow=hidden;rotatable=0;points=[[0,0.5],[1,0.5]];portConstraint=eastwest;whiteSpace=wrap;html=1;opacity=50;strokeWidth=1;dashed=1;dashPattern=1 2;" vertex="1" parent="KraZi5vWTmqZyXcboCno-1">
          <mxGeometry y="26" width="200" height="30" as="geometry" />
        </mxCell>
        <mxCell id="KraZi5vWTmqZyXcboCno-3" value="+ class_method(type): type" style="text;strokeColor=default;fillColor=none;align=left;verticalAlign=top;spacingLeft=4;spacingRight=4;overflow=hidden;rotatable=0;points=[[0,0.5],[1,0.5]];portConstraint=eastwest;whiteSpace=wrap;html=1;strokeWidth=1;dashed=1;dashPattern=1 2;" vertex="1" parent="KraZi5vWTmqZyXcboCno-1">
          <mxGeometry y="56" width="200" height="30" as="geometry" />
        </mxCell>
        <mxCell id="KraZi5vWTmqZyXcboCno-68" value="Methods" style="swimlane;html=1;fontStyle=1;align=center;verticalAlign=top;childLayout=stackLayout;horizontal=1;startSize=30;horizontalStack=0;resizeParent=1;resizeLast=0;collapsible=1;marginBottom=0;swimlaneFillColor=default;rounded=0;shadow=0;comic=0;labelBackgroundColor=none;strokeWidth=1;fillColor=none;fontFamily=Verdana;fontSize=12;movable=1;resizable=1;rotatable=1;deletable=1;editable=1;locked=0;connectable=1;" vertex="1" parent="nz1UPFNmMk5ghnaWC0-e-1">
          <mxGeometry x="560" y="80" width="160" height="60" as="geometry">
            <mxRectangle x="100" y="30" width="120" height="30" as="alternateBounds" />
          </mxGeometry>
        </mxCell>
        <mxCell id="KraZi5vWTmqZyXcboCno-70" value="+ run_game(): None" style="text;html=1;strokeColor=default;fillColor=none;align=left;verticalAlign=top;spacingLeft=4;spacingRight=4;whiteSpace=wrap;overflow=hidden;rotatable=0;points=[[0,0.5],[1,0.5]];portConstraint=eastwest;strokeWidth=1;dashed=1;dashPattern=1 2;" vertex="1" parent="KraZi5vWTmqZyXcboCno-68">
          <mxGeometry y="30" width="160" height="30" as="geometry" />
        </mxCell>
        <mxCell id="KraZi5vWTmqZyXcboCno-148" style="edgeStyle=orthogonalEdgeStyle;rounded=0;orthogonalLoop=1;jettySize=auto;html=1;dashed=1;dashPattern=8 8;" edge="1" parent="nz1UPFNmMk5ghnaWC0-e-1" source="KraZi5vWTmqZyXcboCno-2" target="KraZi5vWTmqZyXcboCno-155">
          <mxGeometry relative="1" as="geometry">
            <mxPoint x="760" y="90" as="targetPoint" />
            <Array as="points">
              <mxPoint x="740" y="203" />
              <mxPoint x="740" y="100" />
            </Array>
          </mxGeometry>
        </mxCell>
        <mxCell id="KraZi5vWTmqZyXcboCno-155" value="List" style="swimlane;fontStyle=0;childLayout=stackLayout;horizontal=1;startSize=29;fillColor=none;horizontalStack=0;resizeParent=1;resizeParentMax=0;resizeLast=0;collapsible=1;marginBottom=0;html=1;" vertex="1" parent="nz1UPFNmMk5ghnaWC0-e-1">
          <mxGeometry x="760" y="81" width="140" height="107" as="geometry" />
        </mxCell>
        <mxCell id="KraZi5vWTmqZyXcboCno-156" value="Item 1" style="text;strokeColor=none;fillColor=none;align=left;verticalAlign=top;spacingLeft=4;spacingRight=4;overflow=hidden;rotatable=0;points=[[0,0.5],[1,0.5]];portConstraint=eastwest;whiteSpace=wrap;html=1;" vertex="1" parent="KraZi5vWTmqZyXcboCno-155">
          <mxGeometry y="29" width="140" height="26" as="geometry" />
        </mxCell>
        <mxCell id="KraZi5vWTmqZyXcboCno-157" value="Item 2" style="text;strokeColor=none;fillColor=none;align=left;verticalAlign=top;spacingLeft=4;spacingRight=4;overflow=hidden;rotatable=0;points=[[0,0.5],[1,0.5]];portConstraint=eastwest;whiteSpace=wrap;html=1;" vertex="1" parent="KraZi5vWTmqZyXcboCno-155">
          <mxGeometry y="55" width="140" height="26" as="geometry" />
        </mxCell>
        <mxCell id="KraZi5vWTmqZyXcboCno-158" value="Item 3" style="text;strokeColor=none;fillColor=none;align=left;verticalAlign=top;spacingLeft=4;spacingRight=4;overflow=hidden;rotatable=0;points=[[0,0.5],[1,0.5]];portConstraint=eastwest;whiteSpace=wrap;html=1;" vertex="1" parent="KraZi5vWTmqZyXcboCno-155">
          <mxGeometry y="81" width="140" height="26" as="geometry" />
        </mxCell>
        <mxCell id="KraZi5vWTmqZyXcboCno-199" value="" style="text;strokeColor=none;fillColor=none;align=left;verticalAlign=middle;spacingTop=-1;spacingLeft=4;spacingRight=4;rotatable=0;labelPosition=right;points=[];portConstraint=eastwest;" vertex="1" parent="KraZi5vWTmqZyXcboCno-10">
          <mxGeometry y="400" width="1000" height="40" as="geometry" />
        </mxCell>
        <mxCell id="KraZi5vWTmqZyXcboCno-177" value="" style="group" vertex="1" connectable="0" parent="KraZi5vWTmqZyXcboCno-10">
          <mxGeometry y="440" width="1000" height="280" as="geometry" />
        </mxCell>
        <mxCell id="KraZi5vWTmqZyXcboCno-178" style="edgeStyle=orthogonalEdgeStyle;rounded=0;orthogonalLoop=1;jettySize=auto;html=1;entryX=0.5;entryY=0;entryDx=0;entryDy=0;elbow=vertical;" edge="1" parent="KraZi5vWTmqZyXcboCno-177" source="KraZi5vWTmqZyXcboCno-179" target="KraZi5vWTmqZyXcboCno-185">
          <mxGeometry relative="1" as="geometry" />
        </mxCell>
        <mxCell id="KraZi5vWTmqZyXcboCno-195" style="edgeStyle=orthogonalEdgeStyle;rounded=0;orthogonalLoop=1;jettySize=auto;html=1;entryX=0.5;entryY=0;entryDx=0;entryDy=0;" edge="1" parent="KraZi5vWTmqZyXcboCno-177" source="KraZi5vWTmqZyXcboCno-179" target="KraZi5vWTmqZyXcboCno-193">
          <mxGeometry relative="1" as="geometry" />
        </mxCell>
        <mxCell id="KraZi5vWTmqZyXcboCno-179" value="&lt;p style=&quot;margin:0px;margin-top:4px;text-align:center;&quot;&gt;&lt;i&gt;&amp;lt;&amp;lt;Script&amp;gt;&amp;gt;&lt;/i&gt;&lt;br&gt;&lt;b&gt;card_manager.py&lt;/b&gt;&lt;/p&gt;" style="verticalAlign=top;align=left;overflow=fill;fontSize=12;fontFamily=Helvetica;html=1;rounded=0;shadow=0;comic=0;labelBackgroundColor=none;strokeWidth=1;movable=1;resizable=1;rotatable=1;deletable=1;editable=1;locked=0;connectable=1;" vertex="1" parent="KraZi5vWTmqZyXcboCno-177">
          <mxGeometry width="110" height="41.481481481481474" as="geometry" />
        </mxCell>
        <mxCell id="KraZi5vWTmqZyXcboCno-180" value="Variables" style="swimlane;html=1;fontStyle=1;align=center;verticalAlign=top;childLayout=stackLayout;horizontal=1;startSize=30;horizontalStack=0;resizeParent=1;resizeLast=0;collapsible=1;marginBottom=0;swimlaneFillColor=default;rounded=0;shadow=0;comic=0;labelBackgroundColor=none;strokeWidth=1;fillColor=none;fontFamily=Verdana;fontSize=12;movable=1;resizable=1;rotatable=1;deletable=1;editable=1;locked=0;connectable=1;" vertex="1" parent="KraZi5vWTmqZyXcboCno-177">
          <mxGeometry x="120" y="82.96296296296295" width="160" height="145.18518518518516" as="geometry">
            <mxRectangle x="100" y="30" width="120" height="30" as="alternateBounds" />
          </mxGeometry>
        </mxCell>
        <mxCell id="KraZi5vWTmqZyXcboCno-181" value="+ var: type" style="text;html=1;strokeColor=none;fillColor=none;align=left;verticalAlign=top;spacingLeft=4;spacingRight=4;whiteSpace=wrap;overflow=hidden;rotatable=0;points=[[0,0.5],[1,0.5]];portConstraint=eastwest;" vertex="1" parent="KraZi5vWTmqZyXcboCno-180">
          <mxGeometry y="30" width="160" height="31.111111111111114" as="geometry" />
        </mxCell>
        <mxCell id="KraZi5vWTmqZyXcboCno-182" value="+ var: type" style="text;html=1;strokeColor=none;fillColor=none;align=left;verticalAlign=top;spacingLeft=4;spacingRight=4;whiteSpace=wrap;overflow=hidden;rotatable=0;points=[[0,0.5],[1,0.5]];portConstraint=eastwest;" vertex="1" parent="KraZi5vWTmqZyXcboCno-180">
          <mxGeometry y="61.111111111111114" width="160" height="31.111111111111114" as="geometry" />
        </mxCell>
        <mxCell id="KraZi5vWTmqZyXcboCno-183" value="&lt;span style=&quot;color: rgba(0, 0, 0, 0); font-family: monospace; font-size: 0px; background-color: rgb(27, 29, 30);&quot;&gt;%3CmxGraphModel%3E%3Croot%3E%3CmxCell%20id%3D%220%22%2F%3E%3CmxCell%20id%3D%221%22%20parent%3D%220%22%2F%3E%3CmxCell%20id%3D%222%22%20value%3D%22%2B%20draw_card(self)%3A%20None%22%20style%3D%22text%3Bhtml%3D1%3BstrokeColor%3Dnone%3BfillColor%3Dnone%3Balign%3Dleft%3BverticalAlign%3Dtop%3BspacingLeft%3D4%3BspacingRight%3D4%3BwhiteSpace%3Dwrap%3Boverflow%3Dhidden%3Brotatable%3D0%3Bpoints%3D%5B%5B0%2C0.5%5D%2C%5B1%2C0.5%5D%5D%3BportConstraint%3Deastwest%3B%22%20vertex%3D%221%22%20parent%3D%221%22%3E%3CmxGeometry%20x%3D%22100%22%20y%3D%22170%22%20width%3D%22200%22%20height%3D%2230%22%20as%3D%22geometry%22%2F%3E%3C%2FmxCell%3E%3C%2Froot%3E%3C%2FmxGraphModel%3E&lt;/span&gt;&lt;span style=&quot;color: rgba(0, 0, 0, 0); font-family: monospace; font-size: 0px; background-color: rgb(27, 29, 30);&quot;&gt;%3CmxGraphModel%3E%3Croot%3E%3CmxCell%20id%3D%220%22%2F%3E%3CmxCell%20id%3D%221%22%20parent%3D%220%22%2F%3E%3CmxCell%20id%3D%222%22%20value%3D%22%2B%20draw_card(self)%3A%20None%22%20style%3D%22text%3Bhtml%3D1%3BstrokeColor%3Dnone%3BfillColor%3Dnone%3Balign%3Dleft%3BverticalAlign%3Dtop%3BspacingLeft%3D4%3BspacingRight%3D4%3BwhiteSpace%3Dwrap%3Boverflow%3Dhidden%3Brotatable%3D0%3Bpoints%3D%5B%5B0%2C0.5%5D%2C%5B1%2C0.5%5D%5D%3BportConstraint%3Deastwest%3B%22%20vertex%3D%221%22%20parent%3D%221%22%3E%3CmxGeometry%20x%3D%22100%22%20y%3D%22170%22%20width%3D%22200%22%20height%3D%2230%22%20as%3D%22geometry%22%2F%3E%3C%2FmxCell%3E%3C%2Froot%3E%3C%2FmxGraphModel%3E&lt;/span&gt;" style="line;html=1;strokeWidth=1;fillColor=none;align=left;verticalAlign=middle;spacingTop=-1;spacingLeft=3;spacingRight=3;rotatable=0;labelPosition=right;points=[];portConstraint=eastwest;" vertex="1" parent="KraZi5vWTmqZyXcboCno-180">
          <mxGeometry y="92.22222222222223" width="160" height="20.740740740740737" as="geometry" />
        </mxCell>
        <mxCell id="KraZi5vWTmqZyXcboCno-184" value="+ var: type" style="text;html=1;strokeColor=none;fillColor=none;align=left;verticalAlign=top;spacingLeft=4;spacingRight=4;whiteSpace=wrap;overflow=hidden;rotatable=0;points=[[0,0.5],[1,0.5]];portConstraint=eastwest;" vertex="1" parent="KraZi5vWTmqZyXcboCno-180">
          <mxGeometry y="112.96296296296296" width="160" height="31.111111111111114" as="geometry" />
        </mxCell>
        <mxCell id="KraZi5vWTmqZyXcboCno-185" value="Classname" style="swimlane;html=1;fontStyle=1;align=center;verticalAlign=top;childLayout=stackLayout;horizontal=1;startSize=30;horizontalStack=0;resizeParent=1;resizeLast=0;collapsible=1;marginBottom=0;swimlaneFillColor=#ffffff;rounded=0;shadow=0;comic=0;labelBackgroundColor=none;strokeWidth=1;fillColor=none;fontFamily=Verdana;fontSize=12" vertex="1" parent="KraZi5vWTmqZyXcboCno-177">
          <mxGeometry x="320" y="82.96296296296295" width="200" height="197.037037037037" as="geometry" />
        </mxCell>
        <mxCell id="KraZi5vWTmqZyXcboCno-186" value="+ self.instance_variable: type" style="text;html=1;strokeColor=none;fillColor=none;align=left;verticalAlign=top;spacingLeft=4;spacingRight=4;whiteSpace=wrap;overflow=hidden;rotatable=0;points=[[0,0.5],[1,0.5]];portConstraint=eastwest;" vertex="1" parent="KraZi5vWTmqZyXcboCno-185">
          <mxGeometry y="30" width="200" height="31.11111111111111" as="geometry" />
        </mxCell>
        <mxCell id="KraZi5vWTmqZyXcboCno-187" value="&lt;span style=&quot;color: rgba(0, 0, 0, 0); font-family: monospace; font-size: 0px; background-color: rgb(27, 29, 30);&quot;&gt;%3CmxGraphModel%3E%3Croot%3E%3CmxCell%20id%3D%220%22%2F%3E%3CmxCell%20id%3D%221%22%20parent%3D%220%22%2F%3E%3CmxCell%20id%3D%222%22%20value%3D%22%2B%20draw_card(self)%3A%20None%22%20style%3D%22text%3Bhtml%3D1%3BstrokeColor%3Dnone%3BfillColor%3Dnone%3Balign%3Dleft%3BverticalAlign%3Dtop%3BspacingLeft%3D4%3BspacingRight%3D4%3BwhiteSpace%3Dwrap%3Boverflow%3Dhidden%3Brotatable%3D0%3Bpoints%3D%5B%5B0%2C0.5%5D%2C%5B1%2C0.5%5D%5D%3BportConstraint%3Deastwest%3B%22%20vertex%3D%221%22%20parent%3D%221%22%3E%3CmxGeometry%20x%3D%22100%22%20y%3D%22170%22%20width%3D%22200%22%20height%3D%2230%22%20as%3D%22geometry%22%2F%3E%3C%2FmxCell%3E%3C%2Froot%3E%3C%2FmxGraphModel%3E&lt;/span&gt;&lt;span style=&quot;color: rgba(0, 0, 0, 0); font-family: monospace; font-size: 0px; background-color: rgb(27, 29, 30);&quot;&gt;%3CmxGraphModel%3E%3Croot%3E%3CmxCell%20id%3D%220%22%2F%3E%3CmxCell%20id%3D%221%22%20parent%3D%220%22%2F%3E%3CmxCell%20id%3D%222%22%20value%3D%22%2B%20draw_card(self)%3A%20None%22%20style%3D%22text%3Bhtml%3D1%3BstrokeColor%3Dnone%3BfillColor%3Dnone%3Balign%3Dleft%3BverticalAlign%3Dtop%3BspacingLeft%3D4%3BspacingRight%3D4%3BwhiteSpace%3Dwrap%3Boverflow%3Dhidden%3Brotatable%3D0%3Bpoints%3D%5B%5B0%2C0.5%5D%2C%5B1%2C0.5%5D%5D%3BportConstraint%3Deastwest%3B%22%20vertex%3D%221%22%20parent%3D%221%22%3E%3CmxGeometry%20x%3D%22100%22%20y%3D%22170%22%20width%3D%22200%22%20height%3D%2230%22%20as%3D%22geometry%22%2F%3E%3C%2FmxCell%3E%3C%2Froot%3E%3C%2FmxGraphModel%3E&lt;/span&gt;" style="line;html=1;strokeWidth=1;fillColor=none;align=left;verticalAlign=middle;spacingTop=-1;spacingLeft=3;spacingRight=3;rotatable=0;labelPosition=right;points=[];portConstraint=eastwest;" vertex="1" parent="KraZi5vWTmqZyXcboCno-185">
          <mxGeometry y="61.111111111111114" width="200" height="20.740740740740737" as="geometry" />
        </mxCell>
        <mxCell id="KraZi5vWTmqZyXcboCno-188" value="+ class_variable: type" style="text;html=1;strokeColor=none;fillColor=none;align=left;verticalAlign=top;spacingLeft=4;spacingRight=4;whiteSpace=wrap;overflow=hidden;rotatable=0;points=[[0,0.5],[1,0.5]];portConstraint=eastwest;" vertex="1" parent="KraZi5vWTmqZyXcboCno-185">
          <mxGeometry y="81.85185185185185" width="200" height="31.11111111111111" as="geometry" />
        </mxCell>
        <mxCell id="KraZi5vWTmqZyXcboCno-189" value="&lt;span style=&quot;color: rgba(0, 0, 0, 0); font-family: monospace; font-size: 0px; background-color: rgb(27, 29, 30);&quot;&gt;%3CmxGraphModel%3E%3Croot%3E%3CmxCell%20id%3D%220%22%2F%3E%3CmxCell%20id%3D%221%22%20parent%3D%220%22%2F%3E%3CmxCell%20id%3D%222%22%20value%3D%22%2B%20draw_card(self)%3A%20None%22%20style%3D%22text%3Bhtml%3D1%3BstrokeColor%3Dnone%3BfillColor%3Dnone%3Balign%3Dleft%3BverticalAlign%3Dtop%3BspacingLeft%3D4%3BspacingRight%3D4%3BwhiteSpace%3Dwrap%3Boverflow%3Dhidden%3Brotatable%3D0%3Bpoints%3D%5B%5B0%2C0.5%5D%2C%5B1%2C0.5%5D%5D%3BportConstraint%3Deastwest%3B%22%20vertex%3D%221%22%20parent%3D%221%22%3E%3CmxGeometry%20x%3D%22100%22%20y%3D%22170%22%20width%3D%22200%22%20height%3D%2230%22%20as%3D%22geometry%22%2F%3E%3C%2FmxCell%3E%3C%2Froot%3E%3C%2FmxGraphModel%3E&lt;/span&gt;&lt;span style=&quot;color: rgba(0, 0, 0, 0); font-family: monospace; font-size: 0px; background-color: rgb(27, 29, 30);&quot;&gt;%3CmxGraphModel%3E%3Croot%3E%3CmxCell%20id%3D%220%22%2F%3E%3CmxCell%20id%3D%221%22%20parent%3D%220%22%2F%3E%3CmxCell%20id%3D%222%22%20value%3D%22%2B%20draw_card(self)%3A%20None%22%20style%3D%22text%3Bhtml%3D1%3BstrokeColor%3Dnone%3BfillColor%3Dnone%3Balign%3Dleft%3BverticalAlign%3Dtop%3BspacingLeft%3D4%3BspacingRight%3D4%3BwhiteSpace%3Dwrap%3Boverflow%3Dhidden%3Brotatable%3D0%3Bpoints%3D%5B%5B0%2C0.5%5D%2C%5B1%2C0.5%5D%5D%3BportConstraint%3Deastwest%3B%22%20vertex%3D%221%22%20parent%3D%221%22%3E%3CmxGeometry%20x%3D%22100%22%20y%3D%22170%22%20width%3D%22200%22%20height%3D%2230%22%20as%3D%22geometry%22%2F%3E%3C%2FmxCell%3E%3C%2Froot%3E%3C%2FmxGraphModel%3E&lt;/span&gt;" style="line;html=1;strokeWidth=1;fillColor=none;align=left;verticalAlign=middle;spacingTop=-1;spacingLeft=3;spacingRight=3;rotatable=0;labelPosition=right;points=[];portConstraint=eastwest;" vertex="1" parent="KraZi5vWTmqZyXcboCno-185">
          <mxGeometry y="112.96296296296296" width="200" height="20.740740740740737" as="geometry" />
        </mxCell>
        <mxCell id="KraZi5vWTmqZyXcboCno-190" value="+ instance_method(self, type): type" style="text;html=1;strokeColor=none;fillColor=none;align=left;verticalAlign=top;spacingLeft=4;spacingRight=4;whiteSpace=wrap;overflow=hidden;rotatable=0;points=[[0,0.5],[1,0.5]];portConstraint=eastwest;" vertex="1" parent="KraZi5vWTmqZyXcboCno-185">
          <mxGeometry y="133.7037037037037" width="200" height="31.11111111111111" as="geometry" />
        </mxCell>
        <mxCell id="KraZi5vWTmqZyXcboCno-191" value="+ class_method(type): type" style="text;html=1;strokeColor=none;fillColor=none;align=left;verticalAlign=top;spacingLeft=4;spacingRight=4;whiteSpace=wrap;overflow=hidden;rotatable=0;points=[[0,0.5],[1,0.5]];portConstraint=eastwest;" vertex="1" parent="KraZi5vWTmqZyXcboCno-185">
          <mxGeometry y="164.8148148148148" width="200" height="31.11111111111111" as="geometry" />
        </mxCell>
        <mxCell id="KraZi5vWTmqZyXcboCno-192" style="edgeStyle=orthogonalEdgeStyle;rounded=0;orthogonalLoop=1;jettySize=auto;html=1;entryX=0.5;entryY=0;entryDx=0;entryDy=0;elbow=vertical;strokeColor=light-dark(#000000,#FFFFFF);" edge="1" parent="KraZi5vWTmqZyXcboCno-177" source="KraZi5vWTmqZyXcboCno-179" target="KraZi5vWTmqZyXcboCno-180">
          <mxGeometry relative="1" as="geometry" />
        </mxCell>
        <mxCell id="KraZi5vWTmqZyXcboCno-193" value="Methods" style="swimlane;html=1;fontStyle=1;align=center;verticalAlign=top;childLayout=stackLayout;horizontal=1;startSize=30;horizontalStack=0;resizeParent=1;resizeLast=0;collapsible=1;marginBottom=0;swimlaneFillColor=default;rounded=0;shadow=0;comic=0;labelBackgroundColor=none;strokeWidth=1;fillColor=none;fontFamily=Verdana;fontSize=12;movable=1;resizable=1;rotatable=1;deletable=1;editable=1;locked=0;connectable=1;" vertex="1" parent="KraZi5vWTmqZyXcboCno-177">
          <mxGeometry x="560" y="82.96296296296295" width="160" height="62.22222222222222" as="geometry">
            <mxRectangle x="100" y="30" width="120" height="30" as="alternateBounds" />
          </mxGeometry>
        </mxCell>
        <mxCell id="KraZi5vWTmqZyXcboCno-194" value="+ run_game(): None" style="text;html=1;strokeColor=default;fillColor=none;align=left;verticalAlign=top;spacingLeft=4;spacingRight=4;whiteSpace=wrap;overflow=hidden;rotatable=0;points=[[0,0.5],[1,0.5]];portConstraint=eastwest;strokeWidth=1;dashed=1;dashPattern=1 2;" vertex="1" parent="KraZi5vWTmqZyXcboCno-193">
          <mxGeometry y="30" width="160" height="31.11111111111111" as="geometry" />
        </mxCell>
        <mxCell id="KraZi5vWTmqZyXcboCno-86" value="" style="text;strokeColor=none;fillColor=none;align=left;verticalAlign=middle;spacingTop=-1;spacingLeft=4;spacingRight=4;rotatable=0;labelPosition=right;points=[];portConstraint=eastwest;" vertex="1" parent="KraZi5vWTmqZyXcboCno-10">
          <mxGeometry y="720" width="1000" height="40" as="geometry" />
        </mxCell>
        <mxCell id="KraZi5vWTmqZyXcboCno-105" value="" style="group" vertex="1" connectable="0" parent="KraZi5vWTmqZyXcboCno-10">
          <mxGeometry y="760" width="1000" height="320" as="geometry" />
        </mxCell>
        <mxCell id="KraZi5vWTmqZyXcboCno-106" style="edgeStyle=orthogonalEdgeStyle;rounded=0;orthogonalLoop=1;jettySize=auto;html=1;entryX=0.5;entryY=0;entryDx=0;entryDy=0;elbow=vertical;" edge="1" parent="KraZi5vWTmqZyXcboCno-105" source="KraZi5vWTmqZyXcboCno-107" target="KraZi5vWTmqZyXcboCno-110">
          <mxGeometry relative="1" as="geometry">
            <Array as="points">
              <mxPoint x="420" />
            </Array>
          </mxGeometry>
        </mxCell>
        <mxCell id="KraZi5vWTmqZyXcboCno-141" style="edgeStyle=orthogonalEdgeStyle;rounded=0;orthogonalLoop=1;jettySize=auto;html=1;" edge="1" parent="KraZi5vWTmqZyXcboCno-105" source="KraZi5vWTmqZyXcboCno-107" target="KraZi5vWTmqZyXcboCno-139">
          <mxGeometry relative="1" as="geometry">
            <Array as="points">
              <mxPoint x="680" />
            </Array>
          </mxGeometry>
        </mxCell>
        <mxCell id="KraZi5vWTmqZyXcboCno-107" value="&lt;p style=&quot;margin:0px;margin-top:4px;text-align:center;&quot;&gt;&lt;i&gt;&amp;lt;&amp;lt;Module&amp;gt;&amp;gt;&lt;/i&gt;&lt;br&gt;&lt;b&gt;player.py&lt;/b&gt;&lt;/p&gt;" style="verticalAlign=top;align=left;overflow=fill;fontSize=12;fontFamily=Helvetica;html=1;rounded=0;shadow=0;comic=0;labelBackgroundColor=none;strokeWidth=1;movable=1;resizable=1;rotatable=1;deletable=1;editable=1;locked=0;connectable=1;" vertex="1" parent="KraZi5vWTmqZyXcboCno-105">
          <mxGeometry width="80" height="40.76433121019108" as="geometry" />
        </mxCell>
        <mxCell id="KraZi5vWTmqZyXcboCno-108" value="Variables" style="swimlane;html=1;fontStyle=1;align=center;verticalAlign=top;childLayout=stackLayout;horizontal=1;startSize=31;horizontalStack=0;resizeParent=1;resizeLast=0;collapsible=1;marginBottom=0;swimlaneFillColor=default;rounded=0;shadow=0;comic=0;labelBackgroundColor=none;strokeWidth=1;fillColor=none;fontFamily=Verdana;fontSize=12;movable=1;resizable=1;rotatable=1;deletable=1;editable=1;locked=0;connectable=1;" vertex="1" parent="KraZi5vWTmqZyXcboCno-105">
          <mxGeometry x="120" y="40.76" width="160" height="60" as="geometry">
            <mxRectangle x="100" y="30" width="120" height="30" as="alternateBounds" />
          </mxGeometry>
        </mxCell>
        <mxCell id="KraZi5vWTmqZyXcboCno-110" value="Player" style="swimlane;html=1;fontStyle=1;align=center;verticalAlign=top;childLayout=stackLayout;horizontal=1;startSize=30;horizontalStack=0;resizeParent=1;resizeLast=0;collapsible=1;marginBottom=0;swimlaneFillColor=#ffffff;rounded=0;shadow=0;comic=0;labelBackgroundColor=none;strokeWidth=1;fillColor=none;fontFamily=Verdana;fontSize=12" vertex="1" parent="KraZi5vWTmqZyXcboCno-105">
          <mxGeometry x="320" y="40.76" width="200" height="240" as="geometry" />
        </mxCell>
        <mxCell id="KraZi5vWTmqZyXcboCno-116" value="Variables" style="swimlane;fontStyle=0;childLayout=stackLayout;horizontal=1;startSize=26;fillColor=none;horizontalStack=0;resizeParent=1;resizeParentMax=0;resizeLast=0;collapsible=1;marginBottom=0;html=1;" vertex="1" parent="KraZi5vWTmqZyXcboCno-110">
          <mxGeometry y="30" width="200" height="118.25455423297618" as="geometry" />
        </mxCell>
        <mxCell id="KraZi5vWTmqZyXcboCno-117" value="+ deck: list[Card]" style="text;strokeColor=default;fillColor=none;align=left;verticalAlign=top;spacingLeft=4;spacingRight=4;overflow=hidden;rotatable=0;points=[[0,0.5],[1,0.5]];portConstraint=eastwest;whiteSpace=wrap;html=1;strokeWidth=1;dashed=1;dashPattern=1 2;" vertex="1" parent="KraZi5vWTmqZyXcboCno-116">
          <mxGeometry y="26" width="200" height="30.751518077658723" as="geometry" />
        </mxCell>
        <mxCell id="KraZi5vWTmqZyXcboCno-118" value="+ self.name" style="text;strokeColor=default;fillColor=none;align=left;verticalAlign=top;spacingLeft=4;spacingRight=4;overflow=hidden;rotatable=0;points=[[0,0.5],[1,0.5]];portConstraint=eastwest;whiteSpace=wrap;html=1;strokeWidth=1;dashed=1;dashPattern=1 2;" vertex="1" parent="KraZi5vWTmqZyXcboCno-116">
          <mxGeometry y="56.75151807765872" width="200" height="30.751518077658723" as="geometry" />
        </mxCell>
        <mxCell id="KraZi5vWTmqZyXcboCno-119" value="+ self.hand: list[Card]" style="text;strokeColor=default;fillColor=none;align=left;verticalAlign=top;spacingLeft=4;spacingRight=4;overflow=hidden;rotatable=0;points=[[0,0.5],[1,0.5]];portConstraint=eastwest;whiteSpace=wrap;html=1;strokeWidth=1;dashed=1;dashPattern=1 2;" vertex="1" parent="KraZi5vWTmqZyXcboCno-116">
          <mxGeometry y="87.50303615531745" width="200" height="30.751518077658723" as="geometry" />
        </mxCell>
        <mxCell id="KraZi5vWTmqZyXcboCno-120" value="Methods" style="swimlane;fontStyle=0;childLayout=stackLayout;horizontal=1;startSize=26;fillColor=none;horizontalStack=0;resizeParent=1;resizeParentMax=0;resizeLast=0;collapsible=1;marginBottom=0;html=1;" vertex="1" parent="KraZi5vWTmqZyXcboCno-110">
          <mxGeometry y="148.25455423297618" width="200" height="87.50303615531745" as="geometry" />
        </mxCell>
        <mxCell id="KraZi5vWTmqZyXcboCno-121" value="+ draw_card(self): None" style="text;strokeColor=default;fillColor=none;align=left;verticalAlign=top;spacingLeft=4;spacingRight=4;overflow=hidden;rotatable=0;points=[[0,0.5],[1,0.5]];portConstraint=eastwest;whiteSpace=wrap;html=1;strokeWidth=1;dashed=1;dashPattern=1 2;" vertex="1" parent="KraZi5vWTmqZyXcboCno-120">
          <mxGeometry y="26" width="200" height="30.751518077658723" as="geometry" />
        </mxCell>
        <mxCell id="KraZi5vWTmqZyXcboCno-122" value="+ method()" style="text;strokeColor=default;fillColor=none;align=left;verticalAlign=top;spacingLeft=4;spacingRight=4;overflow=hidden;rotatable=0;points=[[0,0.5],[1,0.5]];portConstraint=eastwest;whiteSpace=wrap;html=1;strokeWidth=1;dashed=1;dashPattern=1 2;" vertex="1" parent="KraZi5vWTmqZyXcboCno-120">
          <mxGeometry y="56.75151807765872" width="200" height="30.751518077658723" as="geometry" />
        </mxCell>
        <mxCell id="KraZi5vWTmqZyXcboCno-112" style="edgeStyle=orthogonalEdgeStyle;rounded=0;orthogonalLoop=1;jettySize=auto;html=1;entryX=0.5;entryY=0;entryDx=0;entryDy=0;elbow=vertical;strokeColor=light-dark(#000000,#FFFFFF);" edge="1" parent="KraZi5vWTmqZyXcboCno-105" source="KraZi5vWTmqZyXcboCno-107" target="KraZi5vWTmqZyXcboCno-108">
          <mxGeometry relative="1" as="geometry">
            <Array as="points">
              <mxPoint x="200" />
            </Array>
          </mxGeometry>
        </mxCell>
        <mxCell id="KraZi5vWTmqZyXcboCno-144" style="edgeStyle=orthogonalEdgeStyle;rounded=0;orthogonalLoop=1;jettySize=auto;html=1;dashed=1;dashPattern=8 8;" edge="1" parent="KraZi5vWTmqZyXcboCno-105" source="KraZi5vWTmqZyXcboCno-139" target="KraZi5vWTmqZyXcboCno-110">
          <mxGeometry relative="1" as="geometry">
            <Array as="points">
              <mxPoint x="540" y="60" />
              <mxPoint x="540" y="60" />
            </Array>
          </mxGeometry>
        </mxCell>
        <mxCell id="KraZi5vWTmqZyXcboCno-139" value="Methods" style="swimlane;html=1;fontStyle=1;align=center;verticalAlign=top;childLayout=stackLayout;horizontal=1;startSize=30;horizontalStack=0;resizeParent=1;resizeLast=0;collapsible=1;marginBottom=0;swimlaneFillColor=default;rounded=0;shadow=0;comic=0;labelBackgroundColor=none;strokeWidth=1;fillColor=none;fontFamily=Verdana;fontSize=12;movable=1;resizable=1;rotatable=1;deletable=1;editable=1;locked=0;connectable=1;" vertex="1" parent="KraZi5vWTmqZyXcboCno-105">
          <mxGeometry x="560" y="40.76" width="240" height="61" as="geometry">
            <mxRectangle x="100" y="30" width="120" height="30" as="alternateBounds" />
          </mxGeometry>
        </mxCell>
        <mxCell id="KraZi5vWTmqZyXcboCno-143" value="+ set_global_deck_reference(list[Card])" style="text;html=1;strokeColor=default;fillColor=none;align=left;verticalAlign=top;spacingLeft=4;spacingRight=4;whiteSpace=wrap;overflow=hidden;rotatable=0;points=[[0,0.5],[1,0.5]];portConstraint=eastwest;strokeWidth=1;dashed=1;dashPattern=1 2;" vertex="1" parent="KraZi5vWTmqZyXcboCno-139">
          <mxGeometry y="30" width="240" height="30.573248407643312" as="geometry" />
        </mxCell>
        <mxCell id="KraZi5vWTmqZyXcboCno-113" value="" style="text;strokeColor=none;fillColor=none;align=left;verticalAlign=middle;spacingTop=-1;spacingLeft=4;spacingRight=4;rotatable=0;labelPosition=right;points=[];portConstraint=eastwest;" vertex="1" parent="KraZi5vWTmqZyXcboCno-10">
          <mxGeometry y="1080" width="1000" height="40" as="geometry" />
        </mxCell>
        <mxCell id="KraZi5vWTmqZyXcboCno-129" style="edgeStyle=orthogonalEdgeStyle;rounded=0;orthogonalLoop=1;jettySize=auto;html=1;dashed=1;dashPattern=8 8;" edge="1" parent="KraZi5vWTmqZyXcboCno-10" source="KraZi5vWTmqZyXcboCno-45" target="KraZi5vWTmqZyXcboCno-107">
          <mxGeometry relative="1" as="geometry">
            <mxPoint x="530" y="850" as="sourcePoint" />
            <Array as="points">
              <mxPoint x="470" y="1100" />
              <mxPoint x="100" y="1100" />
              <mxPoint x="100" y="780" />
            </Array>
          </mxGeometry>
        </mxCell>
        <mxCell id="KraZi5vWTmqZyXcboCno-37" value="" style="group" vertex="1" connectable="0" parent="KraZi5vWTmqZyXcboCno-10">
          <mxGeometry y="1120" width="1000" height="121" as="geometry" />
        </mxCell>
        <mxCell id="KraZi5vWTmqZyXcboCno-38" style="edgeStyle=orthogonalEdgeStyle;rounded=0;orthogonalLoop=1;jettySize=auto;html=1;entryX=0.5;entryY=0;entryDx=0;entryDy=0;elbow=vertical;" edge="1" parent="KraZi5vWTmqZyXcboCno-37" source="KraZi5vWTmqZyXcboCno-39" target="KraZi5vWTmqZyXcboCno-45">
          <mxGeometry relative="1" as="geometry" />
        </mxCell>
        <mxCell id="KraZi5vWTmqZyXcboCno-39" value="&lt;p style=&quot;margin:0px;margin-top:4px;text-align:center;&quot;&gt;&lt;i&gt;&amp;lt;&amp;lt;Module&amp;gt;&amp;gt;&lt;/i&gt;&lt;br&gt;&lt;b&gt;card.py&lt;/b&gt;&lt;/p&gt;" style="verticalAlign=top;align=left;overflow=fill;fontSize=12;fontFamily=Helvetica;html=1;rounded=0;shadow=0;comic=0;labelBackgroundColor=none;strokeWidth=1;movable=1;resizable=1;rotatable=1;deletable=1;editable=1;locked=0;connectable=1;" vertex="1" parent="KraZi5vWTmqZyXcboCno-37">
          <mxGeometry width="80" height="40" as="geometry" />
        </mxCell>
        <mxCell id="KraZi5vWTmqZyXcboCno-40" value="Variables" style="swimlane;html=1;fontStyle=1;align=center;verticalAlign=top;childLayout=stackLayout;horizontal=1;startSize=30;horizontalStack=0;resizeParent=1;resizeLast=0;collapsible=1;marginBottom=0;swimlaneFillColor=default;rounded=0;shadow=0;comic=0;labelBackgroundColor=none;strokeWidth=1;fillColor=none;fontFamily=Verdana;fontSize=12;movable=1;resizable=1;rotatable=1;deletable=1;editable=1;locked=0;connectable=1;" vertex="1" parent="KraZi5vWTmqZyXcboCno-37">
          <mxGeometry x="120" y="57" width="160" height="60" as="geometry">
            <mxRectangle x="100" y="30" width="120" height="30" as="alternateBounds" />
          </mxGeometry>
        </mxCell>
        <mxCell id="KraZi5vWTmqZyXcboCno-41" value="+ var: type" style="text;html=1;strokeColor=default;fillColor=none;align=left;verticalAlign=top;spacingLeft=4;spacingRight=4;whiteSpace=wrap;overflow=hidden;rotatable=0;points=[[0,0.5],[1,0.5]];portConstraint=eastwest;strokeWidth=1;dashed=1;dashPattern=1 2;" vertex="1" parent="KraZi5vWTmqZyXcboCno-40">
          <mxGeometry y="30" width="160" height="30" as="geometry" />
        </mxCell>
        <mxCell id="KraZi5vWTmqZyXcboCno-45" value="Card" style="swimlane;html=1;fontStyle=1;align=center;verticalAlign=top;childLayout=stackLayout;horizontal=1;startSize=30;horizontalStack=0;resizeParent=1;resizeLast=0;collapsible=1;marginBottom=0;swimlaneFillColor=#ffffff;rounded=0;shadow=0;comic=0;labelBackgroundColor=none;strokeWidth=1;fillColor=none;fontFamily=Verdana;fontSize=12" vertex="1" parent="KraZi5vWTmqZyXcboCno-37">
          <mxGeometry x="320" y="57" width="200" height="60" as="geometry" />
        </mxCell>
        <mxCell id="KraZi5vWTmqZyXcboCno-46" value="+ self.value: int" style="text;html=1;strokeColor=default;fillColor=none;align=left;verticalAlign=top;spacingLeft=4;spacingRight=4;whiteSpace=wrap;overflow=hidden;rotatable=0;points=[[0,0.5],[1,0.5]];portConstraint=eastwest;strokeWidth=1;dashed=1;dashPattern=1 2;" vertex="1" parent="KraZi5vWTmqZyXcboCno-45">
          <mxGeometry y="30" width="200" height="30" as="geometry" />
        </mxCell>
        <mxCell id="KraZi5vWTmqZyXcboCno-52" style="edgeStyle=orthogonalEdgeStyle;rounded=0;orthogonalLoop=1;jettySize=auto;html=1;entryX=0.5;entryY=0;entryDx=0;entryDy=0;elbow=vertical;strokeColor=light-dark(#000000,#FFFFFF);" edge="1" parent="KraZi5vWTmqZyXcboCno-37" source="KraZi5vWTmqZyXcboCno-39" target="KraZi5vWTmqZyXcboCno-40">
          <mxGeometry relative="1" as="geometry" />
        </mxCell>
        <mxCell id="KraZi5vWTmqZyXcboCno-152" style="edgeStyle=orthogonalEdgeStyle;rounded=0;orthogonalLoop=1;jettySize=auto;html=1;dashed=1;dashPattern=8 8;" edge="1" parent="KraZi5vWTmqZyXcboCno-10" source="KraZi5vWTmqZyXcboCno-107" target="nz1UPFNmMk5ghnaWC0-e-3">
          <mxGeometry relative="1" as="geometry">
            <Array as="points">
              <mxPoint x="-20" y="770" />
              <mxPoint x="-20" y="60" />
            </Array>
          </mxGeometry>
        </mxCell>
        <mxCell id="KraZi5vWTmqZyXcboCno-197" style="edgeStyle=orthogonalEdgeStyle;rounded=0;orthogonalLoop=1;jettySize=auto;html=1;" edge="1" parent="KraZi5vWTmqZyXcboCno-10" source="KraZi5vWTmqZyXcboCno-179" target="nz1UPFNmMk5ghnaWC0-e-3">
          <mxGeometry relative="1" as="geometry" />
        </mxCell>
        <mxCell id="_mG5Y99NrrGWGi2W8GaV-195" style="edgeStyle=orthogonalEdgeStyle;rounded=0;orthogonalLoop=1;jettySize=auto;html=1;entryX=0.5;entryY=0;entryDx=0;entryDy=0;dashed=1;dashPattern=8 8;" edge="1" parent="1" source="78961159f06e98e8-43" target="78961159f06e98e8-17">
          <mxGeometry relative="1" as="geometry" />
        </mxCell>
        <mxCell id="E63r3hKo1ljijxWut-a7-29" style="edgeStyle=orthogonalEdgeStyle;rounded=0;orthogonalLoop=1;jettySize=auto;html=1;entryX=0.25;entryY=0;entryDx=0;entryDy=0;" edge="1" parent="1" source="_mG5Y99NrrGWGi2W8GaV-39" target="_mG5Y99NrrGWGi2W8GaV-42">
          <mxGeometry relative="1" as="geometry">
            <Array as="points">
              <mxPoint x="1115" y="-420" />
              <mxPoint x="1377" y="-420" />
            </Array>
          </mxGeometry>
        </mxCell>
        <mxCell id="_mG5Y99NrrGWGi2W8GaV-107" style="rounded=0;orthogonalLoop=1;jettySize=auto;html=1;entryX=0.5;entryY=0;entryDx=0;entryDy=0;startArrow=classic;startFill=1;strokeWidth=1;edgeStyle=orthogonalEdgeStyle;" edge="1" parent="1" source="_mG5Y99NrrGWGi2W8GaV-106" target="_mG5Y99NrrGWGi2W8GaV-42">
          <mxGeometry relative="1" as="geometry" />
        </mxCell>
        <mxCell id="_mG5Y99NrrGWGi2W8GaV-146" style="edgeStyle=orthogonalEdgeStyle;rounded=0;orthogonalLoop=1;jettySize=auto;html=1;entryX=0;entryY=0.25;entryDx=0;entryDy=0;" edge="1" parent="1" source="78961159f06e98e8-23" target="_mG5Y99NrrGWGi2W8GaV-42">
          <mxGeometry relative="1" as="geometry" />
        </mxCell>
        <mxCell id="E63r3hKo1ljijxWut-a7-10" style="edgeStyle=orthogonalEdgeStyle;rounded=0;orthogonalLoop=1;jettySize=auto;html=1;entryX=0.5;entryY=0;entryDx=0;entryDy=0;" edge="1" parent="1" source="E63r3hKo1ljijxWut-a7-5" target="E63r3hKo1ljijxWut-a7-7">
          <mxGeometry relative="1" as="geometry" />
        </mxCell>
        <mxCell id="E63r3hKo1ljijxWut-a7-11" style="edgeStyle=orthogonalEdgeStyle;rounded=0;orthogonalLoop=1;jettySize=auto;html=1;entryX=0;entryY=0.5;entryDx=0;entryDy=0;dashed=1;dashPattern=1 1;" edge="1" parent="1" source="E63r3hKo1ljijxWut-a7-7" target="_mG5Y99NrrGWGi2W8GaV-166">
          <mxGeometry relative="1" as="geometry" />
        </mxCell>
        <mxCell id="E63r3hKo1ljijxWut-a7-30" style="edgeStyle=orthogonalEdgeStyle;rounded=0;orthogonalLoop=1;jettySize=auto;html=1;entryX=0.5;entryY=0;entryDx=0;entryDy=0;" edge="1" parent="1" source="E63r3hKo1ljijxWut-a7-7" target="_mG5Y99NrrGWGi2W8GaV-259">
          <mxGeometry relative="1" as="geometry" />
        </mxCell>
        <mxCell id="E63r3hKo1ljijxWut-a7-28" style="edgeStyle=orthogonalEdgeStyle;rounded=0;orthogonalLoop=1;jettySize=auto;html=1;entryX=0;entryY=0.5;entryDx=0;entryDy=0;" edge="1" parent="1" source="78961159f06e98e8-43" target="_mG5Y99NrrGWGi2W8GaV-39">
          <mxGeometry relative="1" as="geometry" />
        </mxCell>
        <mxCell id="_mG5Y99NrrGWGi2W8GaV-148" style="edgeStyle=orthogonalEdgeStyle;rounded=0;orthogonalLoop=1;jettySize=auto;html=1;entryX=0.5;entryY=0;entryDx=0;entryDy=0;" edge="1" parent="1" source="78961159f06e98e8-17" target="_mG5Y99NrrGWGi2W8GaV-14">
          <mxGeometry relative="1" as="geometry">
            <Array as="points">
              <mxPoint x="840" y="-559" />
              <mxPoint x="840" y="-360" />
              <mxPoint x="1040" y="-360" />
            </Array>
          </mxGeometry>
        </mxCell>
        <mxCell id="E63r3hKo1ljijxWut-a7-41" style="edgeStyle=orthogonalEdgeStyle;rounded=0;orthogonalLoop=1;jettySize=auto;html=1;exitX=0.5;exitY=1;exitDx=0;exitDy=0;" edge="1" parent="1" source="78961159f06e98e8-43">
          <mxGeometry relative="1" as="geometry">
            <mxPoint x="920" y="-130" as="targetPoint" />
            <Array as="points">
              <mxPoint x="1200" y="-130" />
            </Array>
          </mxGeometry>
        </mxCell>
        <mxCell id="b94bc138ca980ef-1" value="&lt;p style=&quot;margin:0px;margin-top:4px;text-align:center;&quot;&gt;&lt;i&gt;&amp;lt;&amp;lt;Interface&amp;gt;&amp;gt;&lt;/i&gt;&lt;br&gt;&lt;b&gt;interface.py&lt;/b&gt;&lt;/p&gt;&lt;hr size=&quot;1&quot;&gt;&lt;p style=&quot;margin:0px;margin-left:4px;&quot;&gt;+ field1: Type&lt;br&gt;+ field2: Type&lt;/p&gt;&lt;hr size=&quot;1&quot;&gt;&lt;p style=&quot;margin:0px;margin-left:4px;&quot;&gt;+ method1(Type): Type&lt;br&gt;+ method2(Type, Type): Type&lt;/p&gt;" style="verticalAlign=top;align=left;overflow=fill;fontSize=12;fontFamily=Helvetica;html=1;rounded=0;shadow=0;comic=0;labelBackgroundColor=none;strokeWidth=1" parent="1" vertex="1">
          <mxGeometry x="1550" y="-590" width="180" height="130" as="geometry" />
        </mxCell>
        <mxCell id="_mG5Y99NrrGWGi2W8GaV-39" value="&lt;p style=&quot;margin:0px;margin-top:4px;text-align:center;&quot;&gt;&lt;i&gt;&amp;lt;&amp;lt;Module&amp;gt;&amp;gt;&lt;/i&gt;&lt;br&gt;&lt;b&gt;card_manager.py&lt;/b&gt;&lt;/p&gt;&lt;hr size=&quot;1&quot;&gt;&lt;p style=&quot;margin:0px;margin-left:4px;&quot;&gt;+ cards : list[Card]&lt;br&gt;+ deck: list[Card]&lt;/p&gt;&lt;hr size=&quot;1&quot;&gt;&lt;p style=&quot;margin:0px;margin-left:4px;&quot;&gt;+ init_cards():&lt;/p&gt;&lt;p style=&quot;margin:0px;margin-left:4px;&quot;&gt;+ shuffle():&lt;/p&gt;&lt;p style=&quot;margin:0px;margin-left:4px;&quot;&gt;+ set_global_deck_reference(list[Card]):&amp;nbsp;&lt;span style=&quot;background-color: transparent; color: light-dark(rgb(0, 0, 0), rgb(255, 255, 255));&quot;&gt;list[Card]&lt;/span&gt;&lt;span style=&quot;background-color: transparent; color: light-dark(rgb(0, 0, 0), rgb(255, 255, 255));&quot;&gt;&amp;nbsp;&lt;/span&gt;&lt;/p&gt;" style="verticalAlign=top;align=left;overflow=fill;fontSize=12;fontFamily=Helvetica;html=1;rounded=0;shadow=0;comic=0;labelBackgroundColor=none;strokeWidth=1" vertex="1" parent="1">
          <mxGeometry x="1400" y="-920" width="290" height="140" as="geometry" />
        </mxCell>
        <mxCell id="_mG5Y99NrrGWGi2W8GaV-42" value="&lt;p style=&quot;margin:0px;margin-top:4px;text-align:center;&quot;&gt;&lt;i&gt;&amp;lt;&amp;lt;App&amp;gt;&amp;gt;&lt;/i&gt;&lt;br&gt;&lt;b&gt;py21.py&lt;/b&gt;&lt;/p&gt;&lt;hr size=&quot;1&quot;&gt;&lt;p style=&quot;margin:0px;margin-left:4px;&quot;&gt;+ player1: Player&lt;br&gt;+ player2: Player&lt;/p&gt;&lt;p style=&quot;margin:0px;margin-left:4px;&quot;&gt;&lt;br&gt;&lt;/p&gt;&lt;p style=&quot;margin:0px;margin-left:4px;&quot;&gt;+ initial_bet: int&lt;/p&gt;&lt;p style=&quot;margin:0px;margin-left:4px;&quot;&gt;+ current_distance: int&lt;/p&gt;&lt;p style=&quot;margin:0px;margin-left:4px;&quot;&gt;+ max_rounds : int (randint)&lt;/p&gt;&lt;hr size=&quot;1&quot;&gt;&lt;p style=&quot;margin:0px;margin-left:4px;&quot;&gt;+ prompt_player(Player): None&lt;br&gt;&lt;/p&gt;&lt;hr&gt;&amp;nbsp;+ setup_game(): None&lt;div&gt;&lt;br&gt;&lt;div&gt;&amp;nbsp;+ run_game(): None&lt;/div&gt;&lt;/div&gt;" style="verticalAlign=top;align=left;overflow=fill;fontSize=12;fontFamily=Helvetica;html=1;rounded=0;shadow=0;comic=0;labelBackgroundColor=none;strokeWidth=1;perimeterSpacing=0;" vertex="1" parent="1">
          <mxGeometry x="70" y="-370" width="190" height="230" as="geometry" />
        </mxCell>
        <mxCell id="_mG5Y99NrrGWGi2W8GaV-106" value="&lt;p style=&quot;margin:0px;margin-top:4px;text-align:center;&quot;&gt;&lt;i&gt;&amp;lt;&amp;lt;Network handler&amp;gt;&amp;gt;&lt;/i&gt;&lt;br&gt;&lt;b&gt;network_handler.py&lt;/b&gt;&lt;/p&gt;&lt;hr size=&quot;1&quot;&gt;&lt;p style=&quot;margin:0px;margin-left:4px;&quot;&gt;+ field1: Type&lt;br&gt;+ field2: Type&lt;/p&gt;&lt;hr size=&quot;1&quot;&gt;&lt;p style=&quot;margin:0px;margin-left:4px;&quot;&gt;+ method1(Type): Type&lt;br&gt;+ method2(Type, Type): Type&lt;/p&gt;" style="verticalAlign=top;align=left;overflow=fill;fontSize=12;fontFamily=Helvetica;html=1;rounded=0;shadow=0;comic=0;labelBackgroundColor=none;strokeWidth=1" vertex="1" parent="1">
          <mxGeometry x="1330" y="-590" width="180" height="130" as="geometry" />
        </mxCell>
        <mxCell id="_mG5Y99NrrGWGi2W8GaV-166" value="total_distance = initial_bet * 2" style="whiteSpace=wrap;html=1;align=left;perimeterSpacing=0;rounded=0;strokeColor=default;shadow=0;glass=0;" vertex="1" parent="1">
          <mxGeometry x="2140" y="-829" width="180" height="30" as="geometry" />
        </mxCell>
        <mxCell id="E63r3hKo1ljijxWut-a7-5" value="run_game()" style="whiteSpace=wrap;html=1;" vertex="1" parent="1">
          <mxGeometry x="1989" y="-880" width="90" height="30" as="geometry" />
        </mxCell>
        <mxCell id="KraZi5vWTmqZyXcboCno-76" value="" style="edgeStyle=orthogonalEdgeStyle;rounded=0;orthogonalLoop=1;jettySize=auto;html=1;" edge="1" parent="1" source="E63r3hKo1ljijxWut-a7-7" target="E63r3hKo1ljijxWut-a7-5">
          <mxGeometry relative="1" as="geometry" />
        </mxCell>
        <mxCell id="E63r3hKo1ljijxWut-a7-7" value="setup_game()" style="whiteSpace=wrap;html=1;" vertex="1" parent="1">
          <mxGeometry x="1984" y="-829" width="100" height="30" as="geometry" />
        </mxCell>
        <mxCell id="E63r3hKo1ljijxWut-a7-20" value="start_distance = total_distance / 2" style="whiteSpace=wrap;html=1;align=left;" vertex="1" parent="1">
          <mxGeometry x="2140" y="-799" width="200" height="30" as="geometry" />
        </mxCell>
        <mxCell id="_mG5Y99NrrGWGi2W8GaV-198" value="" style="group" vertex="1" connectable="0" parent="1">
          <mxGeometry x="480" y="-728" width="200" height="326" as="geometry" />
        </mxCell>
        <mxCell id="78961159f06e98e8-17" value="Class: Player" style="swimlane;html=1;fontStyle=1;align=center;verticalAlign=top;childLayout=stackLayout;horizontal=1;startSize=26;horizontalStack=0;resizeParent=1;resizeLast=0;collapsible=1;marginBottom=0;swimlaneFillColor=#ffffff;rounded=0;shadow=0;comic=0;labelBackgroundColor=none;strokeWidth=1;fillColor=none;fontFamily=Verdana;fontSize=12" parent="_mG5Y99NrrGWGi2W8GaV-198" vertex="1">
          <mxGeometry width="200" height="326" as="geometry">
            <mxRectangle x="100" y="30" width="120" height="30" as="alternateBounds" />
          </mxGeometry>
        </mxCell>
        <mxCell id="_mG5Y99NrrGWGi2W8GaV-183" value="+ deck : list[Card]" style="text;html=1;strokeColor=none;fillColor=none;align=left;verticalAlign=top;spacingLeft=4;spacingRight=4;whiteSpace=wrap;overflow=hidden;rotatable=0;points=[[0,0.5],[1,0.5]];portConstraint=eastwest;" vertex="1" parent="78961159f06e98e8-17">
          <mxGeometry y="26" width="200" height="30" as="geometry" />
        </mxCell>
        <mxCell id="_mG5Y99NrrGWGi2W8GaV-179" value="&lt;span style=&quot;color: rgba(0, 0, 0, 0); font-family: monospace; font-size: 0px; background-color: rgb(27, 29, 30);&quot;&gt;%3CmxGraphModel%3E%3Croot%3E%3CmxCell%20id%3D%220%22%2F%3E%3CmxCell%20id%3D%221%22%20parent%3D%220%22%2F%3E%3CmxCell%20id%3D%222%22%20value%3D%22%2B%20draw_card(self)%3A%20None%22%20style%3D%22text%3Bhtml%3D1%3BstrokeColor%3Dnone%3BfillColor%3Dnone%3Balign%3Dleft%3BverticalAlign%3Dtop%3BspacingLeft%3D4%3BspacingRight%3D4%3BwhiteSpace%3Dwrap%3Boverflow%3Dhidden%3Brotatable%3D0%3Bpoints%3D%5B%5B0%2C0.5%5D%2C%5B1%2C0.5%5D%5D%3BportConstraint%3Deastwest%3B%22%20vertex%3D%221%22%20parent%3D%221%22%3E%3CmxGeometry%20x%3D%22100%22%20y%3D%22170%22%20width%3D%22200%22%20height%3D%2230%22%20as%3D%22geometry%22%2F%3E%3C%2FmxCell%3E%3C%2Froot%3E%3C%2FmxGraphModel%3E&lt;/span&gt;&lt;span style=&quot;color: rgba(0, 0, 0, 0); font-family: monospace; font-size: 0px; background-color: rgb(27, 29, 30);&quot;&gt;%3CmxGraphModel%3E%3Croot%3E%3CmxCell%20id%3D%220%22%2F%3E%3CmxCell%20id%3D%221%22%20parent%3D%220%22%2F%3E%3CmxCell%20id%3D%222%22%20value%3D%22%2B%20draw_card(self)%3A%20None%22%20style%3D%22text%3Bhtml%3D1%3BstrokeColor%3Dnone%3BfillColor%3Dnone%3Balign%3Dleft%3BverticalAlign%3Dtop%3BspacingLeft%3D4%3BspacingRight%3D4%3BwhiteSpace%3Dwrap%3Boverflow%3Dhidden%3Brotatable%3D0%3Bpoints%3D%5B%5B0%2C0.5%5D%2C%5B1%2C0.5%5D%5D%3BportConstraint%3Deastwest%3B%22%20vertex%3D%221%22%20parent%3D%221%22%3E%3CmxGeometry%20x%3D%22100%22%20y%3D%22170%22%20width%3D%22200%22%20height%3D%2230%22%20as%3D%22geometry%22%2F%3E%3C%2FmxCell%3E%3C%2Froot%3E%3C%2FmxGraphModel%3E&lt;/span&gt;" style="line;html=1;strokeWidth=1;fillColor=none;align=left;verticalAlign=middle;spacingTop=-1;spacingLeft=3;spacingRight=3;rotatable=0;labelPosition=right;points=[];portConstraint=eastwest;" vertex="1" parent="78961159f06e98e8-17">
          <mxGeometry y="56" width="200" height="20" as="geometry" />
        </mxCell>
        <mxCell id="78961159f06e98e8-23" value="+ self.name : str = name" style="text;html=1;strokeColor=none;fillColor=none;align=left;verticalAlign=top;spacingLeft=4;spacingRight=4;whiteSpace=wrap;overflow=hidden;rotatable=0;points=[[0,0.5],[1,0.5]];portConstraint=eastwest;" parent="78961159f06e98e8-17" vertex="1">
          <mxGeometry y="76" width="200" height="30" as="geometry" />
        </mxCell>
        <mxCell id="78961159f06e98e8-24" value="+ self.hand : list[Card]" style="text;html=1;strokeColor=none;fillColor=none;align=left;verticalAlign=top;spacingLeft=4;spacingRight=4;whiteSpace=wrap;overflow=hidden;rotatable=0;points=[[0,0.5],[1,0.5]];portConstraint=eastwest;" parent="78961159f06e98e8-17" vertex="1">
          <mxGeometry y="106" width="200" height="30" as="geometry" />
        </mxCell>
        <mxCell id="_mG5Y99NrrGWGi2W8GaV-172" value="+ self.distance_to_self: list[Card]" style="text;html=1;strokeColor=none;fillColor=none;align=left;verticalAlign=top;spacingLeft=4;spacingRight=4;whiteSpace=wrap;overflow=hidden;rotatable=0;points=[[0,0.5],[1,0.5]];portConstraint=eastwest;" vertex="1" parent="78961159f06e98e8-17">
          <mxGeometry y="136" width="200" height="30" as="geometry" />
        </mxCell>
        <mxCell id="78961159f06e98e8-19" value="&lt;span style=&quot;color: rgba(0, 0, 0, 0); font-family: monospace; font-size: 0px; background-color: rgb(27, 29, 30);&quot;&gt;%3CmxGraphModel%3E%3Croot%3E%3CmxCell%20id%3D%220%22%2F%3E%3CmxCell%20id%3D%221%22%20parent%3D%220%22%2F%3E%3CmxCell%20id%3D%222%22%20value%3D%22%2B%20draw_card(self)%3A%20None%22%20style%3D%22text%3Bhtml%3D1%3BstrokeColor%3Dnone%3BfillColor%3Dnone%3Balign%3Dleft%3BverticalAlign%3Dtop%3BspacingLeft%3D4%3BspacingRight%3D4%3BwhiteSpace%3Dwrap%3Boverflow%3Dhidden%3Brotatable%3D0%3Bpoints%3D%5B%5B0%2C0.5%5D%2C%5B1%2C0.5%5D%5D%3BportConstraint%3Deastwest%3B%22%20vertex%3D%221%22%20parent%3D%221%22%3E%3CmxGeometry%20x%3D%22100%22%20y%3D%22170%22%20width%3D%22200%22%20height%3D%2230%22%20as%3D%22geometry%22%2F%3E%3C%2FmxCell%3E%3C%2Froot%3E%3C%2FmxGraphModel%3E&lt;/span&gt;&lt;span style=&quot;color: rgba(0, 0, 0, 0); font-family: monospace; font-size: 0px; background-color: rgb(27, 29, 30);&quot;&gt;%3CmxGraphModel%3E%3Croot%3E%3CmxCell%20id%3D%220%22%2F%3E%3CmxCell%20id%3D%221%22%20parent%3D%220%22%2F%3E%3CmxCell%20id%3D%222%22%20value%3D%22%2B%20draw_card(self)%3A%20None%22%20style%3D%22text%3Bhtml%3D1%3BstrokeColor%3Dnone%3BfillColor%3Dnone%3Balign%3Dleft%3BverticalAlign%3Dtop%3BspacingLeft%3D4%3BspacingRight%3D4%3BwhiteSpace%3Dwrap%3Boverflow%3Dhidden%3Brotatable%3D0%3Bpoints%3D%5B%5B0%2C0.5%5D%2C%5B1%2C0.5%5D%5D%3BportConstraint%3Deastwest%3B%22%20vertex%3D%221%22%20parent%3D%221%22%3E%3CmxGeometry%20x%3D%22100%22%20y%3D%22170%22%20width%3D%22200%22%20height%3D%2230%22%20as%3D%22geometry%22%2F%3E%3C%2FmxCell%3E%3C%2Froot%3E%3C%2FmxGraphModel%3E&lt;/span&gt;" style="line;html=1;strokeWidth=1;fillColor=none;align=left;verticalAlign=middle;spacingTop=-1;spacingLeft=3;spacingRight=3;rotatable=0;labelPosition=right;points=[];portConstraint=eastwest;" parent="78961159f06e98e8-17" vertex="1">
          <mxGeometry y="166" width="200" height="20" as="geometry" />
        </mxCell>
        <mxCell id="_mG5Y99NrrGWGi2W8GaV-175" value="+ distance_getter(): int" style="text;html=1;strokeColor=none;fillColor=none;align=left;verticalAlign=top;spacingLeft=4;spacingRight=4;whiteSpace=wrap;overflow=hidden;rotatable=0;points=[[0,0.5],[1,0.5]];portConstraint=eastwest;" vertex="1" parent="78961159f06e98e8-17">
          <mxGeometry y="186" width="200" height="30" as="geometry" />
        </mxCell>
        <mxCell id="_mG5Y99NrrGWGi2W8GaV-177" value="+ distance_setter(self): None" style="text;html=1;strokeColor=none;fillColor=none;align=left;verticalAlign=top;spacingLeft=4;spacingRight=4;whiteSpace=wrap;overflow=hidden;rotatable=0;points=[[0,0.5],[1,0.5]];portConstraint=eastwest;" vertex="1" parent="78961159f06e98e8-17">
          <mxGeometry y="216" width="200" height="30" as="geometry" />
        </mxCell>
        <mxCell id="_mG5Y99NrrGWGi2W8GaV-173" value="+ update_distance(): int" style="text;html=1;strokeColor=none;fillColor=none;align=left;verticalAlign=top;spacingLeft=4;spacingRight=4;whiteSpace=wrap;overflow=hidden;rotatable=0;points=[[0,0.5],[1,0.5]];portConstraint=eastwest;" vertex="1" parent="78961159f06e98e8-17">
          <mxGeometry y="246" width="200" height="30" as="geometry" />
        </mxCell>
        <mxCell id="_mG5Y99NrrGWGi2W8GaV-174" value="&lt;span style=&quot;color: rgba(0, 0, 0, 0); font-family: monospace; font-size: 0px; background-color: rgb(27, 29, 30);&quot;&gt;%3CmxGraphModel%3E%3Croot%3E%3CmxCell%20id%3D%220%22%2F%3E%3CmxCell%20id%3D%221%22%20parent%3D%220%22%2F%3E%3CmxCell%20id%3D%222%22%20value%3D%22%2B%20draw_card(self)%3A%20None%22%20style%3D%22text%3Bhtml%3D1%3BstrokeColor%3Dnone%3BfillColor%3Dnone%3Balign%3Dleft%3BverticalAlign%3Dtop%3BspacingLeft%3D4%3BspacingRight%3D4%3BwhiteSpace%3Dwrap%3Boverflow%3Dhidden%3Brotatable%3D0%3Bpoints%3D%5B%5B0%2C0.5%5D%2C%5B1%2C0.5%5D%5D%3BportConstraint%3Deastwest%3B%22%20vertex%3D%221%22%20parent%3D%221%22%3E%3CmxGeometry%20x%3D%22100%22%20y%3D%22170%22%20width%3D%22200%22%20height%3D%2230%22%20as%3D%22geometry%22%2F%3E%3C%2FmxCell%3E%3C%2Froot%3E%3C%2FmxGraphModel%3E&lt;/span&gt;&lt;span style=&quot;color: rgba(0, 0, 0, 0); font-family: monospace; font-size: 0px; background-color: rgb(27, 29, 30);&quot;&gt;%3CmxGraphModel%3E%3Croot%3E%3CmxCell%20id%3D%220%22%2F%3E%3CmxCell%20id%3D%221%22%20parent%3D%220%22%2F%3E%3CmxCell%20id%3D%222%22%20value%3D%22%2B%20draw_card(self)%3A%20None%22%20style%3D%22text%3Bhtml%3D1%3BstrokeColor%3Dnone%3BfillColor%3Dnone%3Balign%3Dleft%3BverticalAlign%3Dtop%3BspacingLeft%3D4%3BspacingRight%3D4%3BwhiteSpace%3Dwrap%3Boverflow%3Dhidden%3Brotatable%3D0%3Bpoints%3D%5B%5B0%2C0.5%5D%2C%5B1%2C0.5%5D%5D%3BportConstraint%3Deastwest%3B%22%20vertex%3D%221%22%20parent%3D%221%22%3E%3CmxGeometry%20x%3D%22100%22%20y%3D%22170%22%20width%3D%22200%22%20height%3D%2230%22%20as%3D%22geometry%22%2F%3E%3C%2FmxCell%3E%3C%2Froot%3E%3C%2FmxGraphModel%3E&lt;/span&gt;" style="line;html=1;strokeWidth=1;fillColor=none;align=left;verticalAlign=middle;spacingTop=-1;spacingLeft=3;spacingRight=3;rotatable=0;labelPosition=right;points=[];portConstraint=eastwest;" vertex="1" parent="78961159f06e98e8-17">
          <mxGeometry y="276" width="200" height="20" as="geometry" />
        </mxCell>
        <mxCell id="78961159f06e98e8-27" value="+ draw_card(self): None" style="text;html=1;strokeColor=none;fillColor=none;align=left;verticalAlign=top;spacingLeft=4;spacingRight=4;whiteSpace=wrap;overflow=hidden;rotatable=0;points=[[0,0.5],[1,0.5]];portConstraint=eastwest;" parent="78961159f06e98e8-17" vertex="1">
          <mxGeometry y="296" width="200" height="30" as="geometry" />
        </mxCell>
        <mxCell id="E63r3hKo1ljijxWut-a7-17" value="" style="group" vertex="1" connectable="0" parent="1">
          <mxGeometry x="1970" y="-649" width="258" height="220" as="geometry" />
        </mxCell>
        <mxCell id="_mG5Y99NrrGWGi2W8GaV-269" style="edgeStyle=orthogonalEdgeStyle;rounded=0;orthogonalLoop=1;jettySize=auto;html=1;entryX=0.5;entryY=0;entryDx=0;entryDy=0;" edge="1" parent="E63r3hKo1ljijxWut-a7-17" source="_mG5Y99NrrGWGi2W8GaV-259" target="_mG5Y99NrrGWGi2W8GaV-273">
          <mxGeometry relative="1" as="geometry">
            <mxPoint x="65" y="30" as="targetPoint" />
          </mxGeometry>
        </mxCell>
        <mxCell id="_mG5Y99NrrGWGi2W8GaV-259" value="for i in range(2)" style="whiteSpace=wrap;html=1;" vertex="1" parent="E63r3hKo1ljijxWut-a7-17">
          <mxGeometry x="15" width="100" height="30" as="geometry" />
        </mxCell>
        <mxCell id="_mG5Y99NrrGWGi2W8GaV-262" style="edgeStyle=orthogonalEdgeStyle;rounded=0;orthogonalLoop=1;jettySize=auto;html=1;exitX=0.5;exitY=0;exitDx=0;exitDy=0;entryX=1;entryY=0.5;entryDx=0;entryDy=0;" edge="1" parent="E63r3hKo1ljijxWut-a7-17" source="_mG5Y99NrrGWGi2W8GaV-264" target="_mG5Y99NrrGWGi2W8GaV-266">
          <mxGeometry relative="1" as="geometry" />
        </mxCell>
        <mxCell id="_mG5Y99NrrGWGi2W8GaV-263" style="edgeStyle=orthogonalEdgeStyle;rounded=0;orthogonalLoop=1;jettySize=auto;html=1;exitX=0.5;exitY=0;exitDx=0;exitDy=0;entryX=0;entryY=0.5;entryDx=0;entryDy=0;" edge="1" parent="E63r3hKo1ljijxWut-a7-17" source="_mG5Y99NrrGWGi2W8GaV-264" target="_mG5Y99NrrGWGi2W8GaV-267">
          <mxGeometry relative="1" as="geometry" />
        </mxCell>
        <mxCell id="_mG5Y99NrrGWGi2W8GaV-264" value="is loop finished?" style="whiteSpace=wrap;html=1;" vertex="1" parent="E63r3hKo1ljijxWut-a7-17">
          <mxGeometry x="145" y="50" width="110" height="30" as="geometry" />
        </mxCell>
        <mxCell id="E63r3hKo1ljijxWut-a7-13" style="edgeStyle=orthogonalEdgeStyle;rounded=0;orthogonalLoop=1;jettySize=auto;html=1;exitX=0;exitY=0.5;exitDx=0;exitDy=0;entryX=1;entryY=0.5;entryDx=0;entryDy=0;" edge="1" parent="E63r3hKo1ljijxWut-a7-17" source="_mG5Y99NrrGWGi2W8GaV-266" target="_mG5Y99NrrGWGi2W8GaV-259">
          <mxGeometry relative="1" as="geometry" />
        </mxCell>
        <mxCell id="_mG5Y99NrrGWGi2W8GaV-266" value="no" style="whiteSpace=wrap;html=1;" vertex="1" parent="E63r3hKo1ljijxWut-a7-17">
          <mxGeometry x="143" width="40" height="30" as="geometry" />
        </mxCell>
        <mxCell id="_mG5Y99NrrGWGi2W8GaV-267" value="yes" style="whiteSpace=wrap;html=1;" vertex="1" parent="E63r3hKo1ljijxWut-a7-17">
          <mxGeometry x="218" width="40" height="30" as="geometry" />
        </mxCell>
        <mxCell id="E63r3hKo1ljijxWut-a7-2" style="edgeStyle=orthogonalEdgeStyle;rounded=0;orthogonalLoop=1;jettySize=auto;html=1;entryX=0.5;entryY=1;entryDx=0;entryDy=0;" edge="1" parent="E63r3hKo1ljijxWut-a7-17" source="_mG5Y99NrrGWGi2W8GaV-281" target="_mG5Y99NrrGWGi2W8GaV-264">
          <mxGeometry relative="1" as="geometry" />
        </mxCell>
        <mxCell id="_mG5Y99NrrGWGi2W8GaV-273" value="for player in players" style="whiteSpace=wrap;html=1;" vertex="1" parent="E63r3hKo1ljijxWut-a7-17">
          <mxGeometry y="90" width="130" height="30" as="geometry" />
        </mxCell>
        <mxCell id="_mG5Y99NrrGWGi2W8GaV-272" style="edgeStyle=orthogonalEdgeStyle;rounded=0;orthogonalLoop=1;jettySize=auto;html=1;entryX=0.5;entryY=0;entryDx=0;entryDy=0;" edge="1" parent="E63r3hKo1ljijxWut-a7-17" source="_mG5Y99NrrGWGi2W8GaV-273" target="_mG5Y99NrrGWGi2W8GaV-275">
          <mxGeometry relative="1" as="geometry" />
        </mxCell>
        <mxCell id="_mG5Y99NrrGWGi2W8GaV-279" style="edgeStyle=orthogonalEdgeStyle;rounded=0;orthogonalLoop=1;jettySize=auto;html=1;entryX=1;entryY=0.5;entryDx=0;entryDy=0;" edge="1" parent="E63r3hKo1ljijxWut-a7-17" source="_mG5Y99NrrGWGi2W8GaV-280" target="_mG5Y99NrrGWGi2W8GaV-273">
          <mxGeometry relative="1" as="geometry">
            <Array as="points">
              <mxPoint x="160" y="105" />
            </Array>
          </mxGeometry>
        </mxCell>
        <mxCell id="E63r3hKo1ljijxWut-a7-15" style="edgeStyle=orthogonalEdgeStyle;rounded=0;orthogonalLoop=1;jettySize=auto;html=1;entryX=0;entryY=0.5;entryDx=0;entryDy=0;" edge="1" parent="E63r3hKo1ljijxWut-a7-17" source="_mG5Y99NrrGWGi2W8GaV-275" target="_mG5Y99NrrGWGi2W8GaV-278">
          <mxGeometry relative="1" as="geometry">
            <Array as="points">
              <mxPoint x="65" y="205" />
            </Array>
          </mxGeometry>
        </mxCell>
        <mxCell id="_mG5Y99NrrGWGi2W8GaV-275" value="player.draw_card()" style="whiteSpace=wrap;html=1;" vertex="1" parent="E63r3hKo1ljijxWut-a7-17">
          <mxGeometry x="5" y="160" width="120" height="30" as="geometry" />
        </mxCell>
        <mxCell id="_mG5Y99NrrGWGi2W8GaV-276" style="edgeStyle=orthogonalEdgeStyle;rounded=0;orthogonalLoop=1;jettySize=auto;html=1;exitX=0.5;exitY=0;exitDx=0;exitDy=0;entryX=1;entryY=0.5;entryDx=0;entryDy=0;" edge="1" parent="E63r3hKo1ljijxWut-a7-17" source="_mG5Y99NrrGWGi2W8GaV-278" target="_mG5Y99NrrGWGi2W8GaV-280">
          <mxGeometry relative="1" as="geometry" />
        </mxCell>
        <mxCell id="_mG5Y99NrrGWGi2W8GaV-277" style="edgeStyle=orthogonalEdgeStyle;rounded=0;orthogonalLoop=1;jettySize=auto;html=1;exitX=0.5;exitY=0;exitDx=0;exitDy=0;entryX=0;entryY=0.5;entryDx=0;entryDy=0;" edge="1" parent="E63r3hKo1ljijxWut-a7-17" source="_mG5Y99NrrGWGi2W8GaV-278" target="_mG5Y99NrrGWGi2W8GaV-281">
          <mxGeometry relative="1" as="geometry" />
        </mxCell>
        <mxCell id="_mG5Y99NrrGWGi2W8GaV-278" value="is loop finished?" style="whiteSpace=wrap;html=1;" vertex="1" parent="E63r3hKo1ljijxWut-a7-17">
          <mxGeometry x="145" y="190" width="110" height="30" as="geometry" />
        </mxCell>
        <mxCell id="_mG5Y99NrrGWGi2W8GaV-280" value="no" style="whiteSpace=wrap;html=1;" vertex="1" parent="E63r3hKo1ljijxWut-a7-17">
          <mxGeometry x="143" y="130" width="40" height="30" as="geometry" />
        </mxCell>
        <mxCell id="_mG5Y99NrrGWGi2W8GaV-281" value="yes" style="whiteSpace=wrap;html=1;" vertex="1" parent="E63r3hKo1ljijxWut-a7-17">
          <mxGeometry x="218" y="130" width="40" height="30" as="geometry" />
        </mxCell>
        <mxCell id="_mG5Y99NrrGWGi2W8GaV-14" value="&lt;p style=&quot;margin:0px;margin-top:4px;text-align:center;&quot;&gt;&lt;i&gt;&amp;lt;&amp;lt;Module&amp;gt;&amp;gt;&lt;/i&gt;&lt;br&gt;&lt;b&gt;player.py&lt;/b&gt;&lt;/p&gt;" style="verticalAlign=top;align=left;overflow=fill;fontSize=12;fontFamily=Helvetica;html=1;rounded=0;shadow=0;comic=0;labelBackgroundColor=none;strokeWidth=1" vertex="1" parent="1">
          <mxGeometry x="840" y="-230" width="90" height="50" as="geometry" />
        </mxCell>
        <mxCell id="_mG5Y99NrrGWGi2W8GaV-123" value="&lt;p style=&quot;margin:0px;margin-top:4px;text-align:center;&quot;&gt;&lt;i&gt;&amp;lt;&amp;lt;Module&amp;gt;&amp;gt;&lt;/i&gt;&lt;br&gt;&lt;b&gt;card.py&lt;/b&gt;&lt;/p&gt;" style="verticalAlign=top;align=left;overflow=fill;fontSize=12;fontFamily=Helvetica;html=1;rounded=0;shadow=0;comic=0;labelBackgroundColor=none;strokeWidth=1" vertex="1" parent="1">
          <mxGeometry x="840" y="-150" width="90" height="50" as="geometry" />
        </mxCell>
        <mxCell id="E63r3hKo1ljijxWut-a7-25" value="" style="group" vertex="1" connectable="0" parent="1">
          <mxGeometry x="1120" y="-411" width="110" height="60" as="geometry" />
        </mxCell>
        <mxCell id="78961159f06e98e8-43" value="Class: Card" style="swimlane;html=1;fontStyle=1;align=center;verticalAlign=top;childLayout=stackLayout;horizontal=1;startSize=38;horizontalStack=0;resizeParent=1;resizeLast=0;collapsible=1;marginBottom=0;swimlaneFillColor=#ffffff;rounded=0;shadow=0;comic=0;labelBackgroundColor=none;strokeWidth=1;fillColor=none;fontFamily=Verdana;fontSize=12;container=0;" parent="E63r3hKo1ljijxWut-a7-25" vertex="1">
          <mxGeometry width="110" height="60" as="geometry" />
        </mxCell>
        <mxCell id="78961159f06e98e8-44" value="+ self.value: int" style="text;html=1;strokeColor=none;fillColor=none;align=left;verticalAlign=top;spacingLeft=4;spacingRight=4;whiteSpace=wrap;overflow=hidden;rotatable=0;points=[[0,0.5],[1,0.5]];portConstraint=eastwest;" parent="E63r3hKo1ljijxWut-a7-25" vertex="1">
          <mxGeometry y="26" width="110" height="30" as="geometry" />
        </mxCell>
      </root>
    </mxGraphModel>
  </diagram>
  <diagram id="ot235k_2P9Xgl6wgLIHi" name="Page-2">
    <mxGraphModel dx="529" dy="311" grid="1" gridSize="10" guides="1" tooltips="1" connect="1" arrows="1" fold="1" page="0" pageScale="1" pageWidth="1169" pageHeight="827" math="0" shadow="0" adaptiveColors="auto">
      <root>
        <mxCell id="0" />
        <mxCell id="1" parent="0" />
        <mxCell id="BFFEboXtbwKFCbmVaWBA-61" value="" style="group" vertex="1" connectable="0" parent="1">
          <mxGeometry width="520" height="270" as="geometry" />
        </mxCell>
        <mxCell id="BFFEboXtbwKFCbmVaWBA-24" style="edgeStyle=orthogonalEdgeStyle;rounded=0;orthogonalLoop=1;jettySize=auto;html=1;entryX=0.5;entryY=0;entryDx=0;entryDy=0;elbow=vertical;" edge="1" parent="BFFEboXtbwKFCbmVaWBA-61" source="LfSW2jy4Ge6OUWP9l1pd-2" target="BFFEboXtbwKFCbmVaWBA-17">
          <mxGeometry relative="1" as="geometry" />
        </mxCell>
        <mxCell id="LfSW2jy4Ge6OUWP9l1pd-2" value="&lt;p style=&quot;margin:0px;margin-top:4px;text-align:center;&quot;&gt;&lt;i&gt;&amp;lt;&amp;lt;Script&amp;gt;&amp;gt;&lt;/i&gt;&lt;br&gt;&lt;b&gt;script.py&lt;/b&gt;&lt;/p&gt;" style="verticalAlign=top;align=left;overflow=fill;fontSize=12;fontFamily=Helvetica;html=1;rounded=0;shadow=0;comic=0;labelBackgroundColor=none;strokeWidth=1;movable=1;resizable=1;rotatable=1;deletable=1;editable=1;locked=0;connectable=1;" vertex="1" parent="BFFEboXtbwKFCbmVaWBA-61">
          <mxGeometry width="80" height="40" as="geometry" />
        </mxCell>
        <mxCell id="ZivlRz9kPnauh4Vf63HX-2" value="Variables" style="swimlane;html=1;fontStyle=1;align=center;verticalAlign=top;childLayout=stackLayout;horizontal=1;startSize=30;horizontalStack=0;resizeParent=1;resizeLast=0;collapsible=1;marginBottom=0;swimlaneFillColor=default;rounded=0;shadow=0;comic=0;labelBackgroundColor=none;strokeWidth=1;fillColor=none;fontFamily=Verdana;fontSize=12;movable=1;resizable=1;rotatable=1;deletable=1;editable=1;locked=0;connectable=1;" vertex="1" parent="BFFEboXtbwKFCbmVaWBA-61">
          <mxGeometry x="120" y="80" width="160" height="140" as="geometry">
            <mxRectangle x="100" y="30" width="120" height="30" as="alternateBounds" />
          </mxGeometry>
        </mxCell>
        <mxCell id="ZivlRz9kPnauh4Vf63HX-3" value="+ var: type" style="text;html=1;strokeColor=none;fillColor=none;align=left;verticalAlign=top;spacingLeft=4;spacingRight=4;whiteSpace=wrap;overflow=hidden;rotatable=0;points=[[0,0.5],[1,0.5]];portConstraint=eastwest;" vertex="1" parent="ZivlRz9kPnauh4Vf63HX-2">
          <mxGeometry y="30" width="160" height="30" as="geometry" />
        </mxCell>
        <mxCell id="ZivlRz9kPnauh4Vf63HX-14" value="+ var: type" style="text;html=1;strokeColor=none;fillColor=none;align=left;verticalAlign=top;spacingLeft=4;spacingRight=4;whiteSpace=wrap;overflow=hidden;rotatable=0;points=[[0,0.5],[1,0.5]];portConstraint=eastwest;" vertex="1" parent="ZivlRz9kPnauh4Vf63HX-2">
          <mxGeometry y="60" width="160" height="30" as="geometry" />
        </mxCell>
        <mxCell id="BFFEboXtbwKFCbmVaWBA-1" value="&lt;span style=&quot;color: rgba(0, 0, 0, 0); font-family: monospace; font-size: 0px; background-color: rgb(27, 29, 30);&quot;&gt;%3CmxGraphModel%3E%3Croot%3E%3CmxCell%20id%3D%220%22%2F%3E%3CmxCell%20id%3D%221%22%20parent%3D%220%22%2F%3E%3CmxCell%20id%3D%222%22%20value%3D%22%2B%20draw_card(self)%3A%20None%22%20style%3D%22text%3Bhtml%3D1%3BstrokeColor%3Dnone%3BfillColor%3Dnone%3Balign%3Dleft%3BverticalAlign%3Dtop%3BspacingLeft%3D4%3BspacingRight%3D4%3BwhiteSpace%3Dwrap%3Boverflow%3Dhidden%3Brotatable%3D0%3Bpoints%3D%5B%5B0%2C0.5%5D%2C%5B1%2C0.5%5D%5D%3BportConstraint%3Deastwest%3B%22%20vertex%3D%221%22%20parent%3D%221%22%3E%3CmxGeometry%20x%3D%22100%22%20y%3D%22170%22%20width%3D%22200%22%20height%3D%2230%22%20as%3D%22geometry%22%2F%3E%3C%2FmxCell%3E%3C%2Froot%3E%3C%2FmxGraphModel%3E&lt;/span&gt;&lt;span style=&quot;color: rgba(0, 0, 0, 0); font-family: monospace; font-size: 0px; background-color: rgb(27, 29, 30);&quot;&gt;%3CmxGraphModel%3E%3Croot%3E%3CmxCell%20id%3D%220%22%2F%3E%3CmxCell%20id%3D%221%22%20parent%3D%220%22%2F%3E%3CmxCell%20id%3D%222%22%20value%3D%22%2B%20draw_card(self)%3A%20None%22%20style%3D%22text%3Bhtml%3D1%3BstrokeColor%3Dnone%3BfillColor%3Dnone%3Balign%3Dleft%3BverticalAlign%3Dtop%3BspacingLeft%3D4%3BspacingRight%3D4%3BwhiteSpace%3Dwrap%3Boverflow%3Dhidden%3Brotatable%3D0%3Bpoints%3D%5B%5B0%2C0.5%5D%2C%5B1%2C0.5%5D%5D%3BportConstraint%3Deastwest%3B%22%20vertex%3D%221%22%20parent%3D%221%22%3E%3CmxGeometry%20x%3D%22100%22%20y%3D%22170%22%20width%3D%22200%22%20height%3D%2230%22%20as%3D%22geometry%22%2F%3E%3C%2FmxCell%3E%3C%2Froot%3E%3C%2FmxGraphModel%3E&lt;/span&gt;" style="line;html=1;strokeWidth=1;fillColor=none;align=left;verticalAlign=middle;spacingTop=-1;spacingLeft=3;spacingRight=3;rotatable=0;labelPosition=right;points=[];portConstraint=eastwest;" vertex="1" parent="ZivlRz9kPnauh4Vf63HX-2">
          <mxGeometry y="90" width="160" height="20" as="geometry" />
        </mxCell>
        <mxCell id="ZivlRz9kPnauh4Vf63HX-18" value="+ var: type" style="text;html=1;strokeColor=none;fillColor=none;align=left;verticalAlign=top;spacingLeft=4;spacingRight=4;whiteSpace=wrap;overflow=hidden;rotatable=0;points=[[0,0.5],[1,0.5]];portConstraint=eastwest;" vertex="1" parent="ZivlRz9kPnauh4Vf63HX-2">
          <mxGeometry y="110" width="160" height="30" as="geometry" />
        </mxCell>
        <mxCell id="BFFEboXtbwKFCbmVaWBA-17" value="Classname" style="swimlane;html=1;fontStyle=1;align=center;verticalAlign=top;childLayout=stackLayout;horizontal=1;startSize=30;horizontalStack=0;resizeParent=1;resizeLast=0;collapsible=1;marginBottom=0;swimlaneFillColor=#ffffff;rounded=0;shadow=0;comic=0;labelBackgroundColor=none;strokeWidth=1;fillColor=none;fontFamily=Verdana;fontSize=12" vertex="1" parent="BFFEboXtbwKFCbmVaWBA-61">
          <mxGeometry x="320" y="80" width="200" height="190" as="geometry" />
        </mxCell>
        <mxCell id="BFFEboXtbwKFCbmVaWBA-21" value="+ self.instance_variable: type" style="text;html=1;strokeColor=none;fillColor=none;align=left;verticalAlign=top;spacingLeft=4;spacingRight=4;whiteSpace=wrap;overflow=hidden;rotatable=0;points=[[0,0.5],[1,0.5]];portConstraint=eastwest;" vertex="1" parent="BFFEboXtbwKFCbmVaWBA-17">
          <mxGeometry y="30" width="200" height="30" as="geometry" />
        </mxCell>
        <mxCell id="BFFEboXtbwKFCbmVaWBA-41" value="&lt;span style=&quot;color: rgba(0, 0, 0, 0); font-family: monospace; font-size: 0px; background-color: rgb(27, 29, 30);&quot;&gt;%3CmxGraphModel%3E%3Croot%3E%3CmxCell%20id%3D%220%22%2F%3E%3CmxCell%20id%3D%221%22%20parent%3D%220%22%2F%3E%3CmxCell%20id%3D%222%22%20value%3D%22%2B%20draw_card(self)%3A%20None%22%20style%3D%22text%3Bhtml%3D1%3BstrokeColor%3Dnone%3BfillColor%3Dnone%3Balign%3Dleft%3BverticalAlign%3Dtop%3BspacingLeft%3D4%3BspacingRight%3D4%3BwhiteSpace%3Dwrap%3Boverflow%3Dhidden%3Brotatable%3D0%3Bpoints%3D%5B%5B0%2C0.5%5D%2C%5B1%2C0.5%5D%5D%3BportConstraint%3Deastwest%3B%22%20vertex%3D%221%22%20parent%3D%221%22%3E%3CmxGeometry%20x%3D%22100%22%20y%3D%22170%22%20width%3D%22200%22%20height%3D%2230%22%20as%3D%22geometry%22%2F%3E%3C%2FmxCell%3E%3C%2Froot%3E%3C%2FmxGraphModel%3E&lt;/span&gt;&lt;span style=&quot;color: rgba(0, 0, 0, 0); font-family: monospace; font-size: 0px; background-color: rgb(27, 29, 30);&quot;&gt;%3CmxGraphModel%3E%3Croot%3E%3CmxCell%20id%3D%220%22%2F%3E%3CmxCell%20id%3D%221%22%20parent%3D%220%22%2F%3E%3CmxCell%20id%3D%222%22%20value%3D%22%2B%20draw_card(self)%3A%20None%22%20style%3D%22text%3Bhtml%3D1%3BstrokeColor%3Dnone%3BfillColor%3Dnone%3Balign%3Dleft%3BverticalAlign%3Dtop%3BspacingLeft%3D4%3BspacingRight%3D4%3BwhiteSpace%3Dwrap%3Boverflow%3Dhidden%3Brotatable%3D0%3Bpoints%3D%5B%5B0%2C0.5%5D%2C%5B1%2C0.5%5D%5D%3BportConstraint%3Deastwest%3B%22%20vertex%3D%221%22%20parent%3D%221%22%3E%3CmxGeometry%20x%3D%22100%22%20y%3D%22170%22%20width%3D%22200%22%20height%3D%2230%22%20as%3D%22geometry%22%2F%3E%3C%2FmxCell%3E%3C%2Froot%3E%3C%2FmxGraphModel%3E&lt;/span&gt;" style="line;html=1;strokeWidth=1;fillColor=none;align=left;verticalAlign=middle;spacingTop=-1;spacingLeft=3;spacingRight=3;rotatable=0;labelPosition=right;points=[];portConstraint=eastwest;" vertex="1" parent="BFFEboXtbwKFCbmVaWBA-17">
          <mxGeometry y="60" width="200" height="20" as="geometry" />
        </mxCell>
        <mxCell id="BFFEboXtbwKFCbmVaWBA-23" value="+ class_variable: type" style="text;html=1;strokeColor=none;fillColor=none;align=left;verticalAlign=top;spacingLeft=4;spacingRight=4;whiteSpace=wrap;overflow=hidden;rotatable=0;points=[[0,0.5],[1,0.5]];portConstraint=eastwest;" vertex="1" parent="BFFEboXtbwKFCbmVaWBA-17">
          <mxGeometry y="80" width="200" height="30" as="geometry" />
        </mxCell>
        <mxCell id="BFFEboXtbwKFCbmVaWBA-55" value="&lt;span style=&quot;color: rgba(0, 0, 0, 0); font-family: monospace; font-size: 0px; background-color: rgb(27, 29, 30);&quot;&gt;%3CmxGraphModel%3E%3Croot%3E%3CmxCell%20id%3D%220%22%2F%3E%3CmxCell%20id%3D%221%22%20parent%3D%220%22%2F%3E%3CmxCell%20id%3D%222%22%20value%3D%22%2B%20draw_card(self)%3A%20None%22%20style%3D%22text%3Bhtml%3D1%3BstrokeColor%3Dnone%3BfillColor%3Dnone%3Balign%3Dleft%3BverticalAlign%3Dtop%3BspacingLeft%3D4%3BspacingRight%3D4%3BwhiteSpace%3Dwrap%3Boverflow%3Dhidden%3Brotatable%3D0%3Bpoints%3D%5B%5B0%2C0.5%5D%2C%5B1%2C0.5%5D%5D%3BportConstraint%3Deastwest%3B%22%20vertex%3D%221%22%20parent%3D%221%22%3E%3CmxGeometry%20x%3D%22100%22%20y%3D%22170%22%20width%3D%22200%22%20height%3D%2230%22%20as%3D%22geometry%22%2F%3E%3C%2FmxCell%3E%3C%2Froot%3E%3C%2FmxGraphModel%3E&lt;/span&gt;&lt;span style=&quot;color: rgba(0, 0, 0, 0); font-family: monospace; font-size: 0px; background-color: rgb(27, 29, 30);&quot;&gt;%3CmxGraphModel%3E%3Croot%3E%3CmxCell%20id%3D%220%22%2F%3E%3CmxCell%20id%3D%221%22%20parent%3D%220%22%2F%3E%3CmxCell%20id%3D%222%22%20value%3D%22%2B%20draw_card(self)%3A%20None%22%20style%3D%22text%3Bhtml%3D1%3BstrokeColor%3Dnone%3BfillColor%3Dnone%3Balign%3Dleft%3BverticalAlign%3Dtop%3BspacingLeft%3D4%3BspacingRight%3D4%3BwhiteSpace%3Dwrap%3Boverflow%3Dhidden%3Brotatable%3D0%3Bpoints%3D%5B%5B0%2C0.5%5D%2C%5B1%2C0.5%5D%5D%3BportConstraint%3Deastwest%3B%22%20vertex%3D%221%22%20parent%3D%221%22%3E%3CmxGeometry%20x%3D%22100%22%20y%3D%22170%22%20width%3D%22200%22%20height%3D%2230%22%20as%3D%22geometry%22%2F%3E%3C%2FmxCell%3E%3C%2Froot%3E%3C%2FmxGraphModel%3E&lt;/span&gt;" style="line;html=1;strokeWidth=1;fillColor=none;align=left;verticalAlign=middle;spacingTop=-1;spacingLeft=3;spacingRight=3;rotatable=0;labelPosition=right;points=[];portConstraint=eastwest;" vertex="1" parent="BFFEboXtbwKFCbmVaWBA-17">
          <mxGeometry y="110" width="200" height="20" as="geometry" />
        </mxCell>
        <mxCell id="BFFEboXtbwKFCbmVaWBA-59" value="+ instance_method(self, type): type" style="text;html=1;strokeColor=none;fillColor=none;align=left;verticalAlign=top;spacingLeft=4;spacingRight=4;whiteSpace=wrap;overflow=hidden;rotatable=0;points=[[0,0.5],[1,0.5]];portConstraint=eastwest;" vertex="1" parent="BFFEboXtbwKFCbmVaWBA-17">
          <mxGeometry y="130" width="200" height="30" as="geometry" />
        </mxCell>
        <mxCell id="BFFEboXtbwKFCbmVaWBA-58" value="+ class_method(type): type" style="text;html=1;strokeColor=none;fillColor=none;align=left;verticalAlign=top;spacingLeft=4;spacingRight=4;whiteSpace=wrap;overflow=hidden;rotatable=0;points=[[0,0.5],[1,0.5]];portConstraint=eastwest;" vertex="1" parent="BFFEboXtbwKFCbmVaWBA-17">
          <mxGeometry y="160" width="200" height="30" as="geometry" />
        </mxCell>
        <mxCell id="BFFEboXtbwKFCbmVaWBA-10" style="edgeStyle=orthogonalEdgeStyle;rounded=0;orthogonalLoop=1;jettySize=auto;html=1;entryX=0.5;entryY=0;entryDx=0;entryDy=0;elbow=vertical;strokeColor=light-dark(#000000,#FFFFFF);" edge="1" parent="BFFEboXtbwKFCbmVaWBA-61" source="LfSW2jy4Ge6OUWP9l1pd-2" target="ZivlRz9kPnauh4Vf63HX-2">
          <mxGeometry relative="1" as="geometry" />
        </mxCell>
      </root>
    </mxGraphModel>
  </diagram>
</mxfile>
